<?xml version="1.0" encoding="utf-8"?>
<!-- Generator: Adobe Illustrator 28.4.1, SVG Export Plug-In . SVG Version: 6.00 Build 0)  -->
<!DOCTYPE svg PUBLIC "-//W3C//DTD SVG 1.1//EN" "http://www.w3.org/Graphics/SVG/1.1/DTD/svg11.dtd" [
	<!ENTITY ns_extend "http://ns.adobe.com/Extensibility/1.0/">
	<!ENTITY ns_ai "http://ns.adobe.com/AdobeIllustrator/10.0/">
	<!ENTITY ns_graphs "http://ns.adobe.com/Graphs/1.0/">
	<!ENTITY ns_vars "http://ns.adobe.com/Variables/1.0/">
	<!ENTITY ns_imrep "http://ns.adobe.com/ImageReplacement/1.0/">
	<!ENTITY ns_sfw "http://ns.adobe.com/SaveForWeb/1.0/">
	<!ENTITY ns_custom "http://ns.adobe.com/GenericCustomNamespace/1.0/">
	<!ENTITY ns_adobe_xpath "http://ns.adobe.com/XPath/1.0/">
]>
<svg version="1.1" id="Слой_1" xmlns:x="&ns_extend;" xmlns:i="&ns_ai;" xmlns:graph="&ns_graphs;"
	 xmlns="http://www.w3.org/2000/svg" xmlns:xlink="http://www.w3.org/1999/xlink" x="0px" y="0px" viewBox="0 0 612 792"
	 style="enable-background:new 0 0 612 792;" xml:space="preserve">
<style type="text/css">
	.st0{fill:#080607;}
	.st1{fill:#EFF3F2;}
	.st2{fill:#080606;}
	.st3{fill:#A61214;}
	.st4{fill:#DEC96E;}
	.st5{fill:#DEC96D;}
	.st6{fill:#DDC96E;}
	.st7{fill:#DFCA6E;}
	.st8{fill:#D3C48B;}
	.st9{fill:#B7AC83;}
	.st10{fill:#0A0405;}
</style>
<metadata>
	<sfw  xmlns="&ns_sfw;">
		<slices></slices>
		<sliceSourceBounds  bottomLeftOrigin="true" height="492.4684009" width="591.0872952" x="7.2449857" y="165.0164052">
			</sliceSourceBounds>
	</sfw>
</metadata>
<g>
	<g>
		<path class="st0" d="M92.5861206,499.2413025c-10.2182159-0.1262512-20.010437-1.651886-29.2923737-5.3956299
			c-30.2890587-12.2168579-48.5800705-34.5699768-54.5788841-66.5549622
			c-6.8803477-36.6851807,10.8524828-73.8140259,43.5870438-91.7210083
			c6.1222229-3.3490295,13.0154457-5.2912903,19.5625496-7.8580627c0.9259186-0.3629761,1.8746109-0.3447266,1.9287491-1.8648071
			c0.8163757-22.9187317,10.2733459-42.3266602,24.9541016-59.3319092
			c19.231842-22.2769318,43.2258072-36.8328857,72.3214188-42.1954651
			c19.2576447-3.5493469,37.9389496-1.8523865,55.2005157,8.4021301c1.2252045,0.7278595,2.4002838,1.5439453,3.5702515,2.3597717
			c1.1022034,0.7685394,2.1668243,1.5910034,3.4864502,2.5659332c0.7702637-1.8835297,1.4962158-3.6723328,2.2323761-5.4569092
			c12.9906006-31.4920502,34.4673767-55.7425385,63.195282-73.7091217
			c18.098175-11.3186951,37.7340088-18.803833,58.8434143-22.0182648
			c36.4511108-5.5505981,70.5986328,0.4224091,100.8861084,22.3023834
			c26.5337219,19.1682129,41.7696228,45.4509583,46.3832092,77.8599854
			c0.4244385,2.9816132,0.7188721,5.9903107,0.8901978,8.9969025c0.1708069,2.997406,0.1106567,6.0079803,0.1475525,8.7033844
			c5.9399414,1.6563263,11.7111511,2.8595276,17.1908264,4.8607788
			c31.0350952,11.3343811,48.2237549,33.6622925,52.0360107,66.3807983
			c0.3474121,2.9823608,0.2664795,6.0129089,0.4677124,9.0154724c0.0432129,0.6445007,0.3014526,1.3843079,0.7063599,1.8790588
			c22.8175659,27.8828125,27.0408325,59.2406311,16.6613159,92.9202576
			c-7.760498,25.181488-23.0979614,45.2933655-43.8435669,61.3396912c-2.0057373,1.5513611-3.0912476,3.071228-3.4263306,5.7150879
			c-2.7935791,22.0481262-12.3988647,40.9787903-27.21698,57.2900085
			c-20.7757874,22.8691406-46.7842712,36.6280518-76.883728,42.5930176
			c-29.0399475,5.7550659-57.3093872,3.147644-84.3478394-9.4998779c-3.6482849-1.7064819-7.1554871-3.7147217-10.4089355-5.4163818
			c-5.5226746,5.0322266-10.7159729,10.2953491-16.4462585,14.8886108
			c-18.9779053,15.2119751-40.7705994,24.3411255-64.6469421,28.2913208
			c-38.3962708,6.3526001-74.7620544,0.151062-108.5553436-19.2782593
			c-26.0749664-14.9916992-45.792717-35.9217529-57.1104584-64.1558838
			c-4.6457901-11.5897217-7.1274719-23.6627197-7.4128799-36.1653137
			C92.6256104,503.1689453,92.6150284,501.3531494,92.5861206,499.2413025z M74.2135925,337.1737366
			c-4.9749146,2.0206299-10.0410843,3.5329285-14.5804176,6.010498
			c-29.6271515,16.1703796-43.7126503,41.503418-41.7139435,74.9529419
			c1.5054932,25.195282,13.554575,45.1764221,34.808979,59.0074768
			c18.0940857,11.7745667,37.8857651,14.6134644,58.8274994,9.3862915c3.8464661-0.9601135,6.6228104,0.3317871,7.4105759,3.4786377
			c0.7335205,2.9301453-1.0989456,5.4238892-4.8666229,6.3696594c-2.8407211,0.7131042-5.7052841,1.4823608-8.6041565,1.7634888
			c-2.1984406,0.2131348-2.6943665,1.0935669-2.6997528,3.0915833c-0.033783,12.5238647,2.1137314,24.6394653,6.7840729,36.2588501
			c10.4216156,25.9280396,28.6125717,45.093811,52.5130386,58.8942871
			c31.1557007,17.989563,64.7406769,23.8566284,100.2394104,18.3895874
			c23.4168091-3.6063843,44.6810303-12.4364624,63.0993347-27.5501099
			c4.4281006-3.6335449,8.4631653-7.7460327,12.7341614-11.689209c-2.957428-2.5359497-5.5950928-4.5812988-7.9736328-6.8932495
			c-2.8372498-2.7577515-2.2985229-6.7578735,0.9272156-8.40448c2.1350098-1.0897827,4.2200012-0.3953857,6.7225952,1.5161133
			c5.4017639,4.1259766,10.7016602,8.4753418,16.5032654,11.9695435
			c13.4360657,8.0922852,28.2069092,12.6390381,43.7504578,14.2672729
			c35.9659424,3.7677612,68.6561584-4.9526367,97.4942932-26.913269
			c17.4578247-13.2943726,30.2134399-30.1948242,36.8793945-51.3406372
			c0.9126587-2.8950195,1.5618286-5.8731079,2.4673462-9.3248901c-1.6166382,0.8668518-2.6273804,1.4952393-3.7050781,1.9725342
			c-6.512085,2.8838501-12.9943848,5.8432617-19.5834656,8.5409546c-2.7194824,1.1134033-5.4977722-0.3545837-6.447998-2.8585205
			c-1.0059814-2.6508179,0.2502136-5.384552,3.051178-6.618988c0.4346008-0.1914978,0.8864746-0.3446655,1.3334351-0.5071716
			c13.607605-4.9469299,26.1173706-11.8531494,37.1316528-21.2805176
			c23.7042236-20.2889099,38.8552246-45.3385315,41.0046387-76.9727478
			c1.8039551-26.5505676-6.8532715-49.3690491-26.9258423-67.2693787
			c-4.4588623-3.9763489-9.7300415-7.0622559-14.7310791-10.4025269c-2.9942017-1.9999695-4.137207-4.7422485-2.6703491-7.3890076
			c1.4515991-2.6190491,4.4865723-3.2777405,7.6727905-1.5256958c2.2202759,1.2209167,4.3837891,2.5570374,6.500061,3.9518127
			c2.3529663,1.5508118,4.6235962,3.226532,7.0859985,4.957428c-0.0097656-0.709259,0.0340576-1.1746826-0.0296021-1.6249084
			c-1.8985596-13.4382019-6.8342285-25.5559082-15.9694214-35.7249756
			c-12.9111328-14.3722839-29.6141968-21.1091614-48.3773499-23.3120728
			c-5.5737-0.6543579-11.2367249-0.5681152-16.8607483-0.7650757c-3.2687988-0.1144409-5.5767517-2.0105591-5.7348938-4.8514709
			c-0.1643372-2.9525909,2.0155334-5.1827545,5.3908997-5.4339447c1.1839294-0.0881042,2.3795776-0.0105133,3.5697021-0.0246277
			c2.9844971-0.0353851,5.9688416-0.0799103,9.0782471-0.1224823c0.0969849-15.0332336-2.5600891-29.6167145-8.7702332-43.3971558
			c-15.1037292-33.5154572-41.4335022-53.4533539-76.7149963-61.7186279
			c-28.4480286-6.6644135-56.4593506-3.8082275-83.2130737,7.6293182
			c-47.75354,20.4152222-78.9499207,55.1006927-89.6038513,106.8243866
			c-0.6703644,3.2546082-2.9499054,5.1018372-5.7895203,4.7044067c-3.0345154-0.4247131-4.7632599-2.8234558-4.2033081-6.2937622
			c0.5673676-3.5162964,1.3435822-7.0057373,2.1933441-10.4664307c0.3493805-1.4228363,0.1750488-2.4477081-1.0230713-3.2811737
			c-3.6349487-2.5286407-7.0458374-5.4854736-10.9401093-7.5158234c-12.8460846-6.6974487-26.7161102-8.1928864-40.763916-5.8705902
			c-37.8156891,6.2514038-66.0929794,26.4289093-84.2553787,60.1345367
			c-8.457222,15.6948242-11.4805908,32.5105286-6.0784607,50.1334839c0.9607086,3.1340332-0.4685516,5.8571777-3.2371216,6.732605
			c-2.6807098,0.8476257-5.4399261-0.6471558-6.444191-3.7637329
			C75.9066544,343.9972534,75.2097549,340.9026794,74.2135925,337.1737366z"/>
		<path class="st1" d="M74.2135925,337.1737366c0.9961624,3.7289429,1.6930618,6.8235168,2.6620026,9.8304443
			c1.0042648,3.1165771,3.7634811,4.6113586,6.444191,3.7637329c2.7685699-0.8754272,4.1978302-3.5985718,3.2371216-6.732605
			c-5.4021301-17.6229553-2.3787613-34.4386597,6.0784607-50.1334839
			c18.1623993-33.7056274,46.4396896-53.8831329,84.2553787-60.1345367
			c14.0478058-2.3222961,27.9178314-0.8268585,40.763916,5.8705902c3.8942719,2.0303497,7.3051605,4.9871826,10.9401093,7.5158234
			c1.1981201,0.8334656,1.3724518,1.8583374,1.0230713,3.2811737c-0.849762,3.4606934-1.6259766,6.9501343-2.1933441,10.4664307
			c-0.5599518,3.4703064,1.1687927,5.8690491,4.2033081,6.2937622c2.8396149,0.3974304,5.1191559-1.4497986,5.7895203-4.7044067
			c10.6539307-51.7236938,41.8503113-86.4091644,89.6038513-106.8243866
			c26.7537231-11.4375458,54.7650452-14.2937317,83.2130737-7.6293182
			c35.2814941,8.265274,61.6112671,28.2031708,76.7149963,61.7186279c6.210144,13.7804413,8.867218,28.3639221,8.7702332,43.3971558
			c-3.1094055,0.042572-6.09375,0.0870972-9.0782471,0.1224823c-1.1901245,0.0141144-2.3857727-0.0634766-3.5697021,0.0246277
			c-3.3753662,0.2511902-5.5552368,2.4813538-5.3908997,5.4339447c0.1581421,2.8409119,2.466095,4.73703,5.7348938,4.8514709
			c5.6240234,0.1969604,11.2870483,0.1107178,16.8607483,0.7650757c18.7631531,2.2029114,35.466217,8.9397888,48.3773499,23.3120728
			c9.1351929,10.1690674,14.0708618,22.2867737,15.9694214,35.7249756c0.0636597,0.4502258,0.0198364,0.9156494,0.0296021,1.6249084
			c-2.4624023-1.730896-4.7330322-3.4066162-7.0859985-4.957428c-2.116272-1.3947754-4.2797852-2.730896-6.500061-3.9518127
			c-3.1862183-1.7520447-6.2211914-1.0933533-7.6727905,1.5256958c-1.4668579,2.646759-0.3238525,5.3890381,2.6703491,7.3890076
			c5.0010376,3.340271,10.2722168,6.426178,14.7310791,10.4025269
			c20.0725708,17.9003296,28.7297974,40.718811,26.9258423,67.2693787
			c-2.1494141,31.6342163-17.300415,56.6838379-41.0046387,76.9727478
			c-11.0142822,9.4273682-23.5240479,16.3335876-37.1316528,21.2805176
			c-0.4469604,0.1625061-0.8988342,0.3156738-1.3334351,0.5071716c-2.8009644,1.234436-4.0571594,3.9681702-3.051178,6.618988
			c0.9502258,2.5039368,3.7285156,3.9719238,6.447998,2.8585205c6.5890808-2.6976929,13.0713806-5.6571045,19.5834656-8.5409546
			c1.0776978-0.4772949,2.0884399-1.1056824,3.7050781-1.9725342c-0.9055176,3.4517822-1.5546875,6.4298706-2.4673462,9.3248901
			c-6.6659546,21.145813-19.4215698,38.0462646-36.8793945,51.3406372
			c-28.8381348,21.9606323-61.5283508,30.6810303-97.4942932,26.913269
			c-15.5435486-1.6282349-30.3143921-6.1749878-43.7504578-14.2672729
			c-5.8016052-3.4942017-11.1015015-7.8435669-16.5032654-11.9695435c-2.502594-1.911499-4.5875854-2.605896-6.7225952-1.5161133
			c-3.2257385,1.6466064-3.7644653,5.6467285-0.9272156,8.40448c2.37854,2.3119507,5.0162048,4.3572998,7.9736328,6.8932495
			c-4.2709961,3.9431763-8.3060608,8.0556641-12.7341614,11.689209
			c-18.4183044,15.1136475-39.6825256,23.9437256-63.0993347,27.5501099
			c-35.4987335,5.467041-69.0837097-0.4000244-100.2394104-18.3895874
			c-23.9004669-13.8004761-42.091423-32.9662476-52.5130386-58.8942871
			c-4.6703415-11.6193848-6.8178558-23.7349854-6.7840729-36.2588501c0.0053864-1.9980164,0.5013123-2.8784485,2.6997528-3.0915833
			c2.8988724-0.2811279,5.7634354-1.0503845,8.6041565-1.7634888c3.7676773-0.9457703,5.6001434-3.4395142,4.8666229-6.3696594
			c-0.7877655-3.1468506-3.5641098-4.4387512-7.4105759-3.4786377c-20.9417343,5.2271729-40.7334137,2.3882751-58.8274994-9.3862915
			c-21.2544041-13.8310547-33.3034859-33.8121948-34.808979-59.0074768
			c-1.9987059-33.4495239,12.086792-58.7825623,41.7139435-74.9529419
			C64.1725082,340.706665,69.238678,339.1943665,74.2135925,337.1737366z M446.350708,403.7931213
			c0.086731-1.1770935,0.1973572-2.0342407,0.2062378-2.8924255c0.3518066-33.8839111,0.667572-67.7682495,1.0602417-101.6517029
			c0.0798035-6.8880615,0.4288635-13.773407,0.6864014-20.658783c0.1011047-2.7038269-1.6182861-4.9113464-4.3746338-5.3582153
			c-0.9317627-0.1510925-1.8986206-0.1116028-2.8495483-0.1142578c-24.8397217-0.0699768-49.6794739-0.1384277-74.5191956-0.1981506
			c-38.8847656-0.0935364-77.7695923-0.1837463-116.6544342-0.2672119
			c-6.9042969-0.0148315-13.8091888-0.0362854-20.7128754,0.0356445c-3.4746704,0.0361938-4.8918152,1.4938049-4.9953613,4.8890686
			c-0.038559,1.2639771,0.0960999,2.5322571,0.0951843,3.7985229c-0.0263519,36.5056458-0.0685883,73.011261-0.0900574,109.5169067
			c-0.0264587,44.997406-0.0603638,89.994812-0.0045166,134.9920654c0.0040741,3.2733154,0.5583191,6.5728149,1.1332855,9.8110352
			c0.5855255,3.2975464,2.4229736,4.6314087,5.852829,4.6607666c20.8697968,0.1785889,41.7397461,0.3413086,62.6095886,0.5142212
			c42.6131592,0.3531494,85.2259216,0.7938843,127.8397827,0.9796143
			c6.9418335,0.0302124,13.9621582-0.6259766,20.8074646-1.7845459c4.6690063-0.7902222,9.1596069-2.84729,13.6220093-4.611084
			c31.3282166-12.3825684,49.3069153-42.536377,44.6159668-75.8470764
			c-2.9491577-20.9427185-13.9924927-36.9207153-32.2033691-47.8130188
			C461.6725159,407.7253418,454.2766418,405.2059021,446.350708,403.7931213z"/>
		<path class="st2" d="M446.350708,403.7931213c7.9259338,1.4127808,15.3218079,3.9322205,22.125,8.0013733
			c18.2108765,10.8923035,29.2542114,26.8703003,32.2033691,47.8130188
			c4.6909485,33.3106995-13.2877502,63.4645081-44.6159668,75.8470764
			c-4.4624023,1.7637939-8.9530029,3.8208618-13.6220093,4.611084c-6.8453064,1.1585693-13.8656311,1.8147583-20.8074646,1.7845459
			c-42.6138611-0.18573-85.2266235-0.6264648-127.8397827-0.9796143
			c-20.8698425-0.1729126-41.7397919-0.3356323-62.6095886-0.5142212c-3.4298553-0.0293579-5.2673035-1.3632202-5.852829-4.6607666
			c-0.5749664-3.2382202-1.1292114-6.5377197-1.1332855-9.8110352
			c-0.0558472-44.9972534-0.0219421-89.9946594,0.0045166-134.9920654
			c0.0214691-36.5056458,0.0637054-73.011261,0.0900574-109.5169067c0.0009155-1.2662659-0.1337433-2.5345459-0.0951843-3.7985229
			c0.1035461-3.3952637,1.5206909-4.8528748,4.9953613-4.8890686c6.9036865-0.0719299,13.8085785-0.0504761,20.7128754-0.0356445
			c38.8848419,0.0834656,77.7696686,0.1736755,116.6544342,0.2672119
			c24.8397217,0.0597229,49.6794739,0.1281738,74.5191956,0.1981506c0.9509277,0.002655,1.9177856-0.0368347,2.8495483,0.1142578
			c2.7563477,0.4468689,4.4757385,2.6543884,4.3746338,5.3582153c-0.2575378,6.885376-0.6065979,13.7707214-0.6864014,20.658783
			c-0.3926697,33.8834534-0.7084351,67.7677917-1.0602417,101.6517029
			C446.5480652,401.7588806,446.437439,402.6160278,446.350708,403.7931213z M234.5685577,409.7520142
			c-0.0317535,2.2313232-0.0635071,4.462677-0.0952759,6.6940002c0.0797119,5.8213501,0.1594086,11.6426392,0.2456512,17.9412537
			c11.9692841-0.1638794,23.8952942-0.3365173,35.8216858-0.4771729c1.3084106-0.0154419,1.3761597-0.7333069,1.2060547-1.7051697
			c-0.0071411-0.6304626-0.0143127-1.2609253-0.0213928-1.8913879c-0.0011902-0.3266296-0.0023804-0.6532898-0.0035706-0.9799194
			c-0.0925903-6.7626648-0.1851807-13.5253296-0.2794495-20.4096985c-0.2590942-0.0223083-0.6385803-0.0870056-1.0172424-0.0829773
			c-11.6987915,0.1238403-23.3975525,0.2521057-35.0960846,0.3979187c-0.2678375,0.0033264-0.5330658,0.216217-0.7994995,0.3313599
			L234.5685577,409.7520142z M433.4589844,398.0903625c0.1483459,0.0320435,0.2966614,0.0640564,0.4450073,0.0960693
			c0.747467,0.1509705,1.4949646,0.3019104,2.7032471,0.545929c-0.1359863-9.9321289-0.2677002-19.551239-0.4021606-29.3724365
			c-51.7752075-0.4005737-103.6719666-0.8020935-155.5516968-1.2034302
			c-0.1252441,0.4933777-0.2307739,0.7145386-0.2303772,0.9355469c0.0191345,9.9923096,0.0458374,19.9845886,0.0867004,29.9768372
			c0.000824,0.2035522,0.1791992,0.4064026,0.2747803,0.6095581c0.7476501,0.1139221,1.4963989,0.3343201,2.2427673,0.3264771
			c44.1906738-0.463501,88.3811646-0.9443665,132.5715027-1.4367371c0.8551025-0.0095215,1.7084351-0.175293,2.5626221-0.2681274
			C423.2605896,398.2301331,428.3597717,398.1602478,433.4589844,398.0903625z M376.0916748,473.6547546
			c-0.613678,6.8442383,0.9136047,13.6516418,3.3763428,20.1353149c1.6767883,4.4143677,4.1239319,8.6396484,6.8175354,12.5415344
			c4.8259583,6.9906616,11.0874939,12.5682983,18.6349487,16.5767212c6.7261047,3.5721436,13.8493042,5.5707397,21.484436,6.4744263
			c10.4120178,1.2324219,20.1620178-0.8140259,29.4768982-4.8895874c9.6285706-4.2127686,17.456665-10.8469238,23.761322-19.4180298
			c6.9206543-9.4085693,10.645752-19.8919983,11.6362915-31.3630066
			c0.8657532-10.0272217-1.1586914-19.7148438-5.4463501-28.7349854
			c-4.3354492-9.1207581-10.6154785-16.815979-19.2707825-22.3175964
			c-5.0942993-3.2381592-10.3278503-6.2684937-16.3668823-7.3284607
			c-5.4781189-0.9615479-11.0241699-2.3640442-16.5109863-2.2430725
			c-7.1838074,0.1583862-14.2237854,1.8077087-21.0380554,4.6082764
			c-12.0397034,4.9481812-21.3091431,13.1881714-28.0151978,23.9385376
			C378.6789856,451.1766052,375.1295471,461.8158569,376.0916748,473.6547546z M437.5481262,283.3181458
			c-52.6051636-0.1229858-104.9303894-0.2453003-157.5155029-0.3682556
			c0.15448,11.2831116,0.3048401,22.2637634,0.4573364,33.4031982
			c52.2336121,0.5674133,104.3968201,1.1340637,156.7180176,1.7024231
			C437.3231201,306.2988892,437.4346313,294.9096985,437.5481262,283.3181458z M280.2049561,325.1428223
			c0.1564026,11.4237366,0.3110046,22.715332,0.4686279,34.2273865
			c51.9102783,0.4009399,103.905304,0.8025513,156.0978699,1.2056885c0.111145-11.4219055,0.2188416-22.4886475,0.3283386-33.740448
			C384.8198547,326.2714539,332.8025513,325.7102661,280.2049561,325.1428223z M409.4830322,407.7543945
			c-0.0501404-0.1673889-0.1002808-0.3347778-0.1503906-0.5021667
			c-42.8808594,0.5871277-85.7617188,1.1742249-128.8241577,1.7638245
			c0.1131592,8.2642212,0.2253723,16.461792,0.3406372,24.8797913c0.9336853-0.0127869,1.7115173-0.0300293,2.4893799-0.0331421
			c31.0195923-0.1240845,62.0392761-0.2341614,93.0583496-0.4358521c0.8632812-0.0055542,1.9857788-0.7948914,2.5393982-1.5480652
			c6.2041016-8.440155,13.8405457-15.241272,22.9922485-20.3209534
			C404.3915405,410.1907043,406.9619141,409.0169373,409.4830322,407.7543945z M372.6803284,442.2541199
			c-30.8859863,0.1357727-61.3709412,0.2697754-92.0657043,0.4047241c0.1173401,8.5702209,0.23172,16.924408,0.3489685,25.4864502
			c28.197998,0.1478882,56.3197021,0.2954102,84.6408691,0.4439392
			C366.3528137,459.3872681,368.6654053,450.7383728,372.6803284,442.2541199z M281.2035828,530.5198364
			c39.1562805,0.326416,78.2161255,0.6520996,117.276001,0.9777222
			c-8.3010254-5.3574219-15.2376404-11.7525635-20.8662415-19.6007996
			c-0.4455261-0.6211243-1.5275879-1.0717773-2.3323059-1.1015015c-4.3569336-0.1609802-8.719574-0.1817627-13.0805054-0.2191772
			c-21.25177-0.1825256-42.5035095-0.3814087-63.7556152-0.5136108c-5.7654114-0.0358582-11.5321655,0.1405029-17.5184021,0.2224426
			C281.0157471,516.8007812,281.1075745,523.5076294,281.2035828,530.5198364z M281.0838623,501.1240234
			c30.2025146,0.2651978,60.3301086,0.5297852,89.9758301,0.7901306c-2.069519-8.125-4.1091003-16.1325073-6.2514648-24.5436096
			c-27.5102844-0.1456299-55.6416321-0.2945862-84.0556946-0.4450378
			C280.8636169,485.0396118,280.9717102,492.9340515,281.0838623,501.1240234z M271.2295837,325.053894
			c-12.1658936-0.1339417-24.3359528-0.2679443-36.8667603-0.4059143
			c0.1580505,11.5430298,0.3126678,22.835907,0.4701843,34.3406677c12.1379395,0.1099548,24.3781128,0.2208557,36.8657532,0.3340149
			C271.5400696,347.7313538,271.386322,336.5035095,271.2295837,325.053894z M234.3274994,283.2530823
			c0.1470947,10.7434998,0.2962036,21.6331787,0.4466858,32.6244202
			c12.2260895,0.1160889,24.3949738,0.2315979,36.7914276,0.3493042
			c-0.1534119-11.2055359-0.3027954-22.1160583-0.4583435-33.4772949
			C259.0307312,282.914856,246.9251099,283.0805969,234.3274994,283.2530823z M271.4528503,368.0554199
			c-12.3331909-0.0747681-24.5780487-0.1489563-37.1230164-0.2250366
			c0.150589,10.9985046,0.2975616,21.7330933,0.4462585,32.5929871c12.2869415-0.1682129,24.5870361-0.3366089,37.1129761-0.5081177
			C271.7433167,389.2695007,271.6003113,378.826416,271.4528503,368.0554199z M234.3344269,443.0922241
			c0.1138916,8.3190918,0.2260132,16.5078125,0.3433533,25.0778809c12.5045929-0.1712036,24.8249054-0.3398743,37.33284-0.5111389
			c-0.1130371-8.2554016-0.2265015-16.5431519-0.3433533-25.0778809
			C259.2490845,442.7510986,246.9835205,442.9190369,234.3344269,443.0922241z M271.7206726,476.6385193
			c-12.4206848,0.1700745-24.8128204,0.3397522-37.4144897,0.5122681
			c0.1060333,7.7435608,0.2138519,15.6194153,0.3227234,23.5706177c12.506485,0.1002502,24.8536072,0.1992493,37.4255981,0.3000488
			C271.9439697,492.9481812,271.836731,485.1152039,271.7206726,476.6385193z M271.9041138,509.8381653
			c-12.5761719-0.1073303-24.9631042-0.2130737-37.5588379-0.3205872c0.096405,7.0409546,0.1880646,13.7355347,0.2827148,20.6481323
			c12.4850159,0.0852661,24.9349365,0.1703491,37.5579529,0.2565918
			C272.0896606,523.3898926,271.9988098,516.7543945,271.9041138,509.8381653z"/>
		<path class="st3" d="M376.0916748,473.6547546c-0.9621277-11.8388977,2.5873108-22.4781494,8.5395203-32.019928
			c6.7060547-10.7503662,15.9754944-18.9903564,28.0151978-23.9385376c6.81427-2.8005676,13.854248-4.4498901,21.0380554-4.6082764
			c5.4868164-0.1209717,11.0328674,1.2815247,16.5109863,2.2430725c6.039032,1.059967,11.272583,4.0903015,16.3668823,7.3284607
			c8.655304,5.5016174,14.9353333,13.1968384,19.2707825,22.3175964c4.2876587,9.0201416,6.3121033,18.7077637,5.4463501,28.7349854
			c-0.9905396,11.4710083-4.7156372,21.9544373-11.6362915,31.3630066
			c-6.304657,8.571106-14.1327515,15.2052612-23.761322,19.4180298c-9.3148804,4.0755615-19.0648804,6.1220093-29.4768982,4.8895874
			c-7.6351318-0.9036865-14.7583313-2.9022827-21.484436-6.4744263
			c-7.5474548-4.0084229-13.8089905-9.5860596-18.6349487-16.5767212c-2.6936035-3.901886-5.1407471-8.1271667-6.8175354-12.5415344
			C377.0052795,487.3063965,375.4779968,480.4989929,376.0916748,473.6547546z M432.7467957,462.1033325
			c-0.4159851-0.2937012-0.7725525-0.4801636-1.0479126-0.7496033c-4.4835205-4.3865967-8.9279175-8.8137512-13.4588318-13.1506042
			c-0.8109436-0.7761841-1.907959-1.4871216-2.9804382-1.7096252c-2.5419312-0.5272522-4.6600342,0.6278687-5.7159119,3.0007629
			c-0.9886169,2.2218018-0.1670227,4.1701355,1.4397278,5.7677917c3.6861877,3.6654968,7.4425964,7.2602844,11.1514587,10.9030762
			c3.8959656,3.8266296,3.8617859,3.8131409-0.0053406,7.879425c-3.2505188,3.4179993-6.5210876,6.823761-9.6166382,10.3796082
			c-1.8418579,2.1157532-1.6690979,5.2186279,0.0339355,6.9191284c2.204834,2.2015076,4.1932983,2.2963867,6.91745,0.2719421
			c0.7562561-0.5619507,1.4896851-1.1807251,2.1277466-1.8712158c3.3615112-3.6378784,6.7219238-7.2780457,10.0122681-10.97995
			c1.2879333-1.4491272,2.2122192-1.511261,3.6346436-0.0348206c3.2210388,3.3432922,6.6584167,6.4772339,9.9768677,9.7278748
			c1.7037354,1.6689148,3.9692078,1.9098511,5.7144775,0.9863586c1.3521729-0.7155151,2.545929-2.6627808,2.8354797-4.241272
			c0.4649963-2.5349426-1.5286255-4.2662964-3.2536621-5.9133301c-2.9012146-2.77005-5.7914124-5.5520325-8.6566772-8.3591309
			c-1.1844788-1.1604614-1.3442383-2.1121216,0.0885925-3.5029907c3.6066589-3.5010071,6.9718628-7.2513123,10.4214783-10.9133606
			c2.0647888-2.1919861,2.3337708-4.905304,0.0639343-7.4082031c-1.8572388-2.0479126-5.1645508-1.7632141-7.3258667,0.4275818
			C441.0123901,453.6799316,436.9351807,457.8408813,432.7467957,462.1033325z"/>
		<path class="st4" d="M437.5481262,283.3181458c-0.1134949,11.5915527-0.2250061,22.9807434-0.3401489,34.7373657
			c-52.3211975-0.5683594-104.4844055-1.1350098-156.7180176-1.7024231
			c-0.1524963-11.1394348-0.3028564-22.1200867-0.4573364-33.4031982
			C332.6177368,283.0728455,384.9429626,283.1951599,437.5481262,283.3181458z"/>
		<path class="st4" d="M280.2049561,325.1428223c52.5975952,0.5674438,104.6148987,1.1286316,156.8948364,1.692627
			c-0.1094971,11.2518005-0.2171936,22.3185425-0.3283386,33.740448
			c-52.1925659-0.4031372-104.1875916-0.8047485-156.0978699-1.2056885
			C280.5159607,347.8581543,280.3613586,336.5665588,280.2049561,325.1428223z"/>
		<path class="st5" d="M280.7844849,399.6784363c-0.0955811-0.2031555-0.2739563-0.4060059-0.2747803-0.6095581
			c-0.040863-9.9922485-0.0675659-19.9845276-0.0867004-29.9768372c-0.0003967-0.2210083,0.1051331-0.4421692,0.2303772-0.9355469
			c51.8797302,0.4013367,103.7764893,0.8028564,155.5516968,1.2034302
			c0.1344604,9.8211975,0.2661743,19.4403076,0.4021606,29.3724365c-1.2082825-0.2440186-1.95578-0.3949585-2.7028198-0.5460205
			c0.0576782-0.0550232,0.1303711-0.1012878,0.1674805-0.1674805c0.03302-0.0590515,0.0266724-0.1401367,0.0376587-0.2115173
			c-0.8262329-0.0634155-1.6533813-0.1919861-2.4786377-0.1809082
			C381.3486938,398.3031616,331.0665894,398.991333,280.7844849,399.6784363z"/>
		<path class="st4" d="M409.4830322,407.7543945c-2.5211182,1.2625427-5.0914917,2.4363098-7.5545349,3.8034363
			c-9.1517029,5.0796814-16.788147,11.8807983-22.9922485,20.3209534c-0.5536194,0.7531738-1.6761169,1.542511-2.5393982,1.5480652
			c-31.0190735,0.2016907-62.0387573,0.3117676-93.0583496,0.4358521c-0.7778625,0.0031128-1.5556946,0.0203552-2.4893799,0.0331421
			c-0.1152649-8.4179993-0.227478-16.6155701-0.3406372-24.8797913c43.062439-0.5895996,85.9432983-1.1766968,128.8241577-1.7638245
			C409.3827515,407.4196167,409.4328918,407.5870056,409.4830322,407.7543945z"/>
		<path class="st4" d="M372.6803284,442.2541199c-4.0149231,8.4842529-6.3275146,17.1331482-7.0758667,26.3351135
			c-28.321167-0.1485291-56.4428711-0.296051-84.6408691-0.4439392c-0.1172485-8.5620422-0.2316284-16.9162292-0.3489685-25.4864502
			C311.3093872,442.5238953,341.794342,442.3898926,372.6803284,442.2541199z"/>
		<path class="st4" d="M281.2035828,530.5198364c-0.0960083-7.012207-0.1878357-13.7190552-0.2770691-20.2349243
			c5.9862366-0.0819397,11.7529907-0.2583008,17.5184021-0.2224426c21.2521057,0.1322021,42.5038452,0.3310852,63.7556152,0.5136108
			c4.3609314,0.0374146,8.7235718,0.058197,13.0805054,0.2191772c0.804718,0.0297241,1.8867798,0.4803772,2.3323059,1.1015015
			c5.6286011,7.8482361,12.5652161,14.2433777,20.8662415,19.6007996
			C359.4197083,531.171936,320.3598633,530.8462524,281.2035828,530.5198364z"/>
		<path class="st4" d="M281.0838623,501.1240234c-0.1121521-8.1899719-0.2202454-16.0844116-0.3313293-24.1985168
			c28.4140625,0.1504517,56.5454102,0.299408,84.0556946,0.4450378c2.1423645,8.4111023,4.1819458,16.4186096,6.2514648,24.5436096
			C341.4139709,501.6538086,311.286377,501.3892212,281.0838623,501.1240234z"/>
		<path class="st4" d="M271.2295837,325.053894c0.1567383,11.4496155,0.3104858,22.6774597,0.4691772,34.2687683
			c-12.4876404-0.1131592-24.7278137-0.2240601-36.8657532-0.3340149
			c-0.1575165-11.5047607-0.3121338-22.7976379-0.4701843-34.3406677
			C246.893631,324.7859497,259.0636902,324.9199524,271.2295837,325.053894z"/>
		<path class="st6" d="M234.3274994,283.2530823c12.5976105-0.1724854,24.7032318-0.3382263,36.7797699-0.5035706
			c0.1555481,11.3612366,0.3049316,22.271759,0.4583435,33.4772949
			c-12.3964539-0.1177063-24.5653381-0.2332153-36.7914276-0.3493042
			C234.623703,304.886261,234.4745941,293.996582,234.3274994,283.2530823z"/>
		<path class="st4" d="M271.4528503,368.0554199c0.1474609,10.7709961,0.2904663,21.2140808,0.4362183,31.8598328
			c-12.5259399,0.1715088-24.8260345,0.3399048-37.1129761,0.5081177
			c-0.1486969-10.8598938-0.2956696-21.5944824-0.4462585-32.5929871
			C246.8748016,367.9064636,259.1196594,367.9806519,271.4528503,368.0554199z"/>
		<path class="st6" d="M234.3344269,443.0922241c12.6490936-0.1731873,24.9146576-0.3411255,37.33284-0.5111389
			c0.1168518,8.534729,0.2303162,16.8224792,0.3433533,25.0778809c-12.5079346,0.1712646-24.8282471,0.3399353-37.33284,0.5111389
			C234.5604401,459.6000366,234.4483185,451.4113159,234.3344269,443.0922241z"/>
		<path class="st6" d="M271.7206726,476.6385193c0.1160583,8.4766846,0.2232971,16.3096619,0.3338318,24.3829346
			c-12.571991-0.1007996-24.9191132-0.1997986-37.4255981-0.3000488
			c-0.1088715-7.9512024-0.2166901-15.8270569-0.3227234-23.5706177
			C246.9078522,476.9782715,259.2999878,476.8085938,271.7206726,476.6385193z"/>
		<path class="st7" d="M271.7217407,429.3336182c0.0011597,0.3266296,0.0023499,0.6532898,0.00354,0.9791565
			c-0.3900146,0.4903259-0.7799988,0.9814148-1.2823486,1.6140442c0.4829712,0.1030273,0.8933716,0.1905823,1.3037415,0.2781067
			c0.170105,0.9718628,0.102356,1.6897278-1.2060547,1.7051697c-11.9263916,0.1406555-23.8524017,0.3132935-35.8216858,0.4771729
			c-0.0862427-6.2986145-0.1659393-12.1199036-0.2456512-17.9405823c0.0317383-2.2311096,0.0635071-4.4628906,0.0952759-6.6946716
			c0,0-0.0391235-0.1817932-0.0385132-0.180542c0.9405518,0.0687866,1.8812714,0.2043762,2.8203278,0.1934814
			c10.4390411-0.1210022,20.8777161-0.2675171,31.3166809-0.3968506c0.8381348-0.010376,1.6771851,0.0554199,2.7826233,0.095459
			C271.54245,416.2411804,271.6320801,422.7874146,271.7217407,429.3336182z"/>
		<path class="st6" d="M271.9041138,509.8381653c0.094696,6.9162292,0.1855469,13.5517273,0.2818298,20.584137
			c-12.6230164-0.0862427-25.072937-0.1713257-37.5579529-0.2565918
			c-0.0946503-6.9125977-0.1863098-13.6071777-0.2827148-20.6481323
			C246.9410095,509.6250916,259.3279419,509.730835,271.9041138,509.8381653z"/>
		<path class="st8" d="M280.7844849,399.6784363c50.2821045-0.6871033,100.564209-1.3752747,150.8464355-2.052002
			c0.8252563-0.0110779,1.6524048,0.1174927,2.4786377,0.1809082c-0.0109863,0.0713806-0.0046387,0.1524658-0.0376587,0.2115173
			c-0.0371094,0.0661926-0.1098022,0.1124573-0.1674805,0.1674805c-0.1487732-0.0319214-0.2970886-0.0639343-0.4454956-0.0959167
			c-5.0992126,0.0698547-10.1983643,0.13974-15.2975464,0.2096252c-0.854187,0.0928345-1.7075195,0.258606-2.5626221,0.2681274
			c-44.1903381,0.4923706-88.3808289,0.9732361-132.5715027,1.4367371
			C282.2808838,400.0127563,281.532135,399.7923584,280.7844849,399.6784363z"/>
		<path class="st9" d="M271.7217102,429.3336182c-0.0896301-6.5462036-0.1792603-13.0924377-0.2720337-19.8700562
			c-1.1054382-0.0400391-1.9444885-0.105835-2.7826233-0.095459c-10.4389648,0.1293335-20.8776398,0.2758484-31.3166809,0.3968506
			c-0.9390564,0.0108948-1.879776-0.1246948-2.820343-0.193512c0.2658386-0.1163635,0.5310669-0.3292542,0.7989044-0.3325806
			c11.6985321-0.145813,23.3972931-0.2740784,35.0960846-0.3979187c0.3786621-0.0040283,0.7581482,0.0606689,1.0172424,0.0829773
			C271.5365295,415.8082886,271.6291199,422.5709534,271.7217102,429.3336182z"/>
		<path class="st5" d="M418.161377,398.3000488c5.0991821-0.0698853,10.1983337-0.1397705,15.2975464-0.2096252
			C428.3597717,398.1602478,423.2605896,398.2301331,418.161377,398.3000488z"/>
		<path class="st9" d="M234.5685577,409.7520142c-0.0317688,2.231781-0.0635376,4.463562-0.0952759,6.6946716
			C234.5050507,414.2146912,234.5368042,411.9833374,234.5685577,409.7520142z"/>
		<path class="st9" d="M271.7466736,432.2049255c-0.4103699-0.0875244-0.8207703-0.1750793-1.3037415-0.2781067
			c0.5023499-0.6326294,0.892334-1.1237183,1.2823486-1.6140442
			C271.7323608,430.9440002,271.7395325,431.5744629,271.7466736,432.2049255z"/>
		<path class="st10" d="M432.7467957,462.1033325c4.188385-4.2624512,8.2655945-8.4234009,12.356781-12.5705566
			c2.1613159-2.1907959,5.4686279-2.4754944,7.3258667-0.4275818c2.2698364,2.5028992,2.0008545,5.216217-0.0639343,7.4082031
			c-3.4496155,3.6620483-6.8148193,7.4123535-10.4214783,10.9133606c-1.4328308,1.3908691-1.2730713,2.3425293-0.0885925,3.5029907
			c2.8652649,2.8070984,5.7554626,5.5890808,8.6566772,8.3591309c1.7250366,1.6470337,3.7186584,3.3783875,3.2536621,5.9133301
			c-0.2895508,1.5784912-1.4833069,3.5257568-2.8354797,4.241272c-1.7452698,0.9234924-4.0107422,0.6825562-5.7144775-0.9863586
			c-3.3184509-3.2506409-6.7558289-6.3845825-9.9768677-9.7278748c-1.4224243-1.4764404-2.3467102-1.4143066-3.6346436,0.0348206
			c-3.2903442,3.7019043-6.6507568,7.3420715-10.0122681,10.97995c-0.6380615,0.6904907-1.3714905,1.3092651-2.1277466,1.8712158
			c-2.7241516,2.0244446-4.712616,1.9295654-6.91745-0.2719421c-1.7030334-1.7005005-1.8757935-4.8033752-0.0339355-6.9191284
			c3.0955505-3.5558472,6.3661194-6.9616089,9.6166382-10.3796082c3.8671265-4.0662842,3.9013062-4.0527954,0.0053406-7.879425
			c-3.7088623-3.6427917-7.465271-7.2375793-11.1514587-10.9030762c-1.6067505-1.5976562-2.4283447-3.54599-1.4397278-5.7677917
			c1.0558777-2.3728943,3.1739807-3.5280151,5.7159119-3.0007629c1.0724792,0.2225037,2.1694946,0.9334412,2.9804382,1.7096252
			c4.5309143,4.336853,8.9753113,8.7640076,13.4588318,13.1506042
			C431.9742432,461.6231689,432.3308105,461.8096313,432.7467957,462.1033325z"/>
	</g>
</g>
</svg>
