<svg viewBox="-120 -110 430 430" width="200px" height="200px"  xmlns="http://www.w3.org/2000/svg"><g fill="#f8e868"><path class="moonlight" d="m 140.511 138.632 c-43.710 0 -79.052 -35.398 -79.052 -79.087 0 -21.427 8.533 -40.864 22.383 -55.098 -45.929 7.681 -80.891 47.57 -80.891 95.633 0 53.564 43.450 97.023 97.022 97.023 48.063 0 87.951 -34.962 95.633 -80.891 -14.234 13.851 -33.672 22.383 -55.096 22.383 zm 0 0"/>
<path class="star" d="m 112.317 17.636 5.776 17.794 h 18.705 c 0.098 0.304 0.095 0.291 0.192 0.595 l -15.132 10.991 5.776 17.794 c -0.256 0.188 -0.247 0.180 -0.505 0.368 l -15.132 -10.991 -15.132 10.991 c -0.258 -0.188 -0.249 -0.180 -0.505 -0.368 l 5.776 -17.794 -15.132 -10.991 c 0.099 -0.304 0.095 -0.291 0.192 -0.595 h 18.705 l 5.776 -17.794 zm 0 0"/>
<path class="star" d="m 159.759 65.164 5.204 15.992 h 16.838 c 0.088 0.273 0.085 0.262 0.174 0.536 l -13.625 9.898 5.204 15.996 c -0.232 0.168 -0.223 0.162 -0.455 0.329 l -13.621 -9.898 -13.621 9.898 c -0.232 -0.168 -0.223 -0.162 -0.455 -0.329 l 5.204 -15.996 -13.621 -9.898 c 0.09 -0.273 0.085 -0.262 0.174 -0.536 h 16.838 l 5.204 -15.992 zm 0 0"/>
</g>
<path class="star" d="m 83.678 37.109 15.148 10.977 -5.78 17.781 3.953 2.869 15.148 -10.977 15.149 10.977 3.953 -2.869 -5.78 -17.781 15.148 -10.977 -1.509 -4.642 h -18.714 l -5.78 -17.783 h -4.882 l -5.78 17.783 h -18.713 z m 24.48 1.213 l 3.961 -12.187 3.958 12.187 h 12.833 l -10.362 7.532 3.961 12.187 -10.362 -7.532 -10.367 7.532 3.961 -12.187 -10.366 -7.532 z m 0 0"></path>
<path class="star" d="m133.658 82.815 13.619 9.898c-5.203 16.023-4.307 13.238-5.203 16.012l3.898 2.832 13.619-9.898 13.619 9.898 3.898-2.832-5.203-16.012 13.619-9.898-1.488-4.587h-16.832l-5.203-16.012h-4.821l-5.203 16.012h-16.832zm22.574 1.278l3.351-10.315 3.351 10.315h10.852l-8.778 6.379 3.351 10.315-8.778-6.379-8.778 6.379 3.351-10.315-8.778-6.379zm0 0"></path>
<path class="moonlight" d="m193.588 114.116c-14.308 13.908-33.156 21.549-53.077 21.549-42.055 0-76.138-34.176-76.138-76.229 0-19.945 7.658-38.804 21.549-53.077l6.225-6.411-8.822 1.478c-23.051 3.864-44.157 15.833-59.428 33.724-33.229 38.897-32.274 97.973 5.352 135.602 18.889 18.889 44.009 29.311 70.772 29.311 21.432 0 41.897-6.683 59.104-19.356l-3.471-4.729c-16.233 11.912-35.487 18.228-55.681 18.228-51.895 0 -94.271-42.378-94.271-94.271 0-43.278 28.974-80.219 70.094-91.065-11.227 14.36-17.33 31.975-17.33 50.425 0 45.288 36.827 82.115 82.115 82.115 18.45 0 36.066-6.104 50.426-17.33-4.819 18.167-15.068 34.628-29.404 47.088l3.841 4.435c17.587-15.226 29.382-36.144 33.172-59.051l1.478-8.819zm0 0"></path>
</svg>