<?xml version="1.0" standalone="no"?>
<svg version="1.0" xmlns="http://www.w3.org/2000/svg"
 width="200px" height="200px" viewBox="0 0 100 100"
 preserveAspectRatio="xMidYMid meet">
<g transform="translate(0.000000,12.000000) scale(0.006000,-0.006000)"
fill="#000000" stroke="none">
<path d="M891 1464 c-208 -56 -362 -253 -361 -464 1 -224 168 -415 396 -452
174 -29 364 59 465 215 37 57 57 112 45 125 -4 3 -39 5 -79 4 -40 -2 -105 3
-144 12 -258 53 -354 246 -243 484 23 50 28 68 19 78 -14 17 -29 17 -98 -2z
m12 -116 c-34 -97 -30 -217 9 -293 65 -127 206 -202 391 -208 42 -1 77 -4 77
-8 0 -16 -63 -100 -104 -137 -142 -130 -352 -147 -514 -42 -112 72 -173 182
-180 321 -5 106 12 171 67 256 44 68 124 135 198 163 83 33 85 31 56 -52z"/>
<path d="M750 1302 c0 -5 -10 -20 -21 -33 -12 -13 -33 -49 -48 -79 -23 -48
-26 -67 -26 -160 0 -97 2 -110 31 -170 39 -82 101 -145 180 -182 55 -25 71
-29 140 -26 44 2 78 7 77 11 -2 4 -40 9 -85 10 -67 2 -93 8 -133 29 -64 33
-129 103 -163 176 -23 49 -27 70 -27 152 0 88 3 101 34 165 19 39 43 76 53 83
22 16 24 32 3 32 -8 0 -15 -4 -15 -8z"/>
<path d="M1252 1218 c-7 -7 -12 -23 -12 -36 0 -14 -12 -35 -26 -49 -31 -28
-28 -43 13 -63 17 -8 35 -27 41 -42 13 -35 44 -37 66 -4 10 16 27 26 48 28 37
3 48 28 26 55 -7 9 -13 35 -13 57 l0 41 -40 0 c-22 0 -50 6 -62 13 -27 15 -26
15 -41 0z m88 -28 c8 6 23 10 34 10 15 0 17 -5 12 -35 -5 -24 -2 -42 9 -59 20
-31 12 -46 -23 -46 -17 0 -34 -10 -48 -27 -19 -24 -24 -26 -38 -14 -9 7 -16
19 -16 26 0 7 -17 23 -37 35 l-38 22 28 24 c18 15 27 33 27 52 0 40 8 45 44
22 22 -13 36 -16 46 -10z"/>
</g>
</svg>
