
<svg class='circular-arrows' version="1.0" xmlns="http://www.w3.org/2000/svg" width="100" height="100" viewBox="0 0 100 100" preserveAspectRatio="xMidYMid meet">
<g transform="translate(0,100) scale(0.1,-0.1)" fill="#000000" stroke="none">
<path d="M445 863c-83-18-168-73-163-105 4-30 34-46 55-31 66 46 99 58 173 58 59 0 84-5 119-24 43-23 43-23 20-35-28-13-36-41-19-61 16-19 150-21 168-3 16 16 16 150 0 166-19 19-48 14-59-12l-11-24-45 28c-64 41-165 59-238 43zm195-44c27-11 56-29 66-40 24-27 42-24 46 9 2 16 9 27 18 27 12 0 15-14 15-70v-70h-70c-56 0-70 3-70 15 0 10 12 16 33 18 38 4 40 11 10 40-81 75-235 83-333 16-26-17-41-22-48-15-21 21 50 70 130 91 54 13 145 4 203-21z"/>
<path d="M488 753c12-2 32-2 45 0 12 2 2 4-23 4-25 0-35-2-22-4z"/>
<path d="M408 734c-16-8-28-17-28-20 0-2 12 2 28 9 15 8 34 17 42 20 13 5 13 5 0 6-8 0-27-7-42-15z"/>
<path d="M575 740c27-12 43-12 25 0-8 5-22 9-30 9-10 0-8-3 5-9z"/>
<path d="M171 682c-55-34-70-56-55-79 7-10 22-17 35-17 23 2 24-1 25-70 2-115 58-211 163-278 52-33 86-36 101-9 14 27 5 45-33 63-89 43-146 124-154 220l-6 63 21-18c23-21 56-16 66 10 4 9-9 43-29 79-42 75-61 80-134 36zm113-46c34-63 27-97-11-50-20 24-25 27-34 14-15-22-5-150 15-188 26-50 85-111 128-133 35-18 52-49 28-49-26 0-89 42-129 85-65 70-85 124-85 223 0 82-7 97-34 70-9-9-15-9-24 0-9 9-9 15 0 24 18 18 86 56 102 57 8 1 28-23 44-53z"/>
<path d="M775 608c-2-7-5-45-8-83-2-39-12-86-22-105-22-44-71-97-107-116-27-14-28-14-28 10 0 29-23 50-47 42-20-6-83-113-83-139 0-20 125-91 145-83 23 8 30 36 16 58-7 11-11 21-9 21 103 50 169 121 198 214 34 110 23 193-25 193-14 0-27-6-30-12zm50-39c25-115-67-277-187-329-26-11-48-23-48-26 0-3 10-14 22-23 12-10 18-23 14-30-5-8-24-2-67 21-32 18-59 36-59 39 0 18 66 119 75 116 11-4 12-33 0-59-17-42 66-8 128 51 58 54 80 104 85 194 3 54 8 77 17 77 8 0 16-14 20-31z"/>
<path d="M731 544c0-11 3-14 6-6 3 7 2 16-1 19-3 4-6-2-5-13z"/>
<path d="M717 460c-9-26-30-62-46-79-16-17-25-31-21-31 24 0 104 140 89 155-3 2-12-18-22-45z"/>
<path d="M313 415c16-33 50-66 84-84 42-22 36-11-10 19-26 16-47 33-47 37 0 5-10 19-21 33l-20 25 14-30z"/>
</g>
</svg>