<?xml version="1.0" encoding="utf-8"?>
<!-- Generator: Adobe Illustrator 28.4.1, SVG Export Plug-In . SVG Version: 6.00 Build 0)  -->
<!DOCTYPE svg PUBLIC "-//W3C//DTD SVG 1.1//EN" "http://www.w3.org/Graphics/SVG/1.1/DTD/svg11.dtd" [
	<!ENTITY ns_extend "http://ns.adobe.com/Extensibility/1.0/">
	<!ENTITY ns_ai "http://ns.adobe.com/AdobeIllustrator/10.0/">
	<!ENTITY ns_graphs "http://ns.adobe.com/Graphs/1.0/">
	<!ENTITY ns_vars "http://ns.adobe.com/Variables/1.0/">
	<!ENTITY ns_imrep "http://ns.adobe.com/ImageReplacement/1.0/">
	<!ENTITY ns_sfw "http://ns.adobe.com/SaveForWeb/1.0/">
	<!ENTITY ns_custom "http://ns.adobe.com/GenericCustomNamespace/1.0/">
	<!ENTITY ns_adobe_xpath "http://ns.adobe.com/XPath/1.0/">
]>
<svg version="1.1" id="Слой_1" xmlns:x="&ns_extend;" xmlns:i="&ns_ai;" xmlns:graph="&ns_graphs;"
	 xmlns="http://www.w3.org/2000/svg" xmlns:xlink="http://www.w3.org/1999/xlink" x="0px" y="0px" viewBox="0 0 612 792"
	 style="enable-background:new 0 0 612 792;" xml:space="preserve">
<style type="text/css">
	.st0{fill:#080607;}
	.st1{fill:#EEF2F1;}
	.st2{fill:#070506;}
	.st3{fill:#070505;}
	.st4{fill:#090708;}
	.st5{fill:#0B090A;}
	.st6{fill:#0A0909;}
	.st7{fill:#0E0C0D;}
	.st8{fill:#33825D;}
</style>
<metadata>
	<sfw  xmlns="&ns_sfw;">
		<slices></slices>
		<sliceSourceBounds  bottomLeftOrigin="true" height="515.4183763" width="584.8035469" x="15.0444734" y="147.2899945">
			</sliceSourceBounds>
	</sfw>
</metadata>
<g>
	<g>
		<path class="st0" d="M367.3430481,586.2173462c-8.8152771,11.4382324-18.594574,21.4932251-29.8134155,30.1101074
			c-19.8603821,15.2543335-42.0748291,24.8959351-67.0587158,27.6206665
			c-25.0213623,2.7287598-48.8028259-1.9344482-71.3189545-12.9907227
			c-27.5401306-13.5231934-48.8749847-34.022583-65.7850952-59.3487549
			c-14.2535095-21.3474121-24.0628891-44.6555176-30.2961197-69.5110779c-0.1208725-0.4819641-0.3081207-0.9472961-0.5112-1.5620728
			c-8.4761276,0.4034424-16.8255157-0.3304138-25.0523224-2.3829041
			c-33.341198-8.3182068-58.2002792-36.8141174-61.8961487-70.9891663
			c-4.9745865-45.9991455,23.2456512-88.8243103,67.3956985-102.0873718c2.250679-0.6760864,2.9384689-1.807373,3.3979797-3.8718262
			c6.4428177-28.9460754,21.3031921-52.4899902,46.1720581-68.8849945
			c29.4202728-19.3955841,60.9563141-22.5903168,94.0018768-10.1812592c0.7875977,0.2957306,1.5662079,0.6153412,2.352417,0.914856
			c0.0701904,0.0267334,0.165741-0.0131073,0.4469147-0.0430603c0.675293-3.7836609,1.2449341-7.6508484,2.0656738-11.463974
			c5.1777039-24.0552826,17.2210236-44.230072,35.052063-60.9717865
			c22.5310059-21.1545258,49.4805908-33.7354431,79.7558289-38.5286713
			c58.1547241-9.2071686,110.2098999,4.4633789,154.350708,44.1911774
			c20.3852539,18.3472443,34.0440674,41.1297455,39.9274292,68.182785
			c3.0371704,13.9658966,3.5426636,28.0288544,0.9663086,42.151535c-0.1233521,0.6761475,0.1734619,1.658844,0.6350708,2.1785889
			c15.9003906,17.9030457,24.7723999,39.2790833,30.5439453,62.1270752
			c4.2719727,16.9116516,6.3994141,34.1087341,5.057373,51.5649719c-0.5079346,6.6068726-1.7457886,13.1647644-2.8336792,19.7146301
			c-0.2543335,1.5310669,0.0396729,2.3126526,1.1522217,3.3920288
			c12.6973877,12.3187256,20.3465576,27.3098755,22.9248657,44.7796326
			c6.6373291,44.9729614-25.303894,88.2281494-72.0985107,94.7019043
			c-5.9522705,0.8234253-12.0869141,0.3400879-18.1374817,0.4309082c-0.9944763,0.0148926-1.9914246-0.1326294-3.1178589-0.2145996
			c-2.2315979,7.3997803-5.5780945,14.1455078-10.3327942,20.1293335
			c-11.2051392,14.1018677-26.0492249,22.2782593-43.5263977,25.3497925
			c-30.8303223,5.418335-58.1429749-2.744751-82.1388855-22.5814209
			C368.9232788,587.5644531,368.2345276,586.9709473,367.3430481,586.2173462z M570.5518799,435.5677795
			c-0.8424072,1.6292725-1.477417,2.9868164-2.2255249,4.2789307c-1.8087769,3.1239014-4.890564,4.2372131-7.6604614,2.8270874
			c-2.8585205-1.4552612-3.795166-4.7476196-2.0388794-8.0482788c5.2133789-9.7976074,7.2230835-20.3993835,8.052063-31.3084412
			c1.0928345-14.3825378-0.1776123-28.6117859-3.0960693-42.6927185
			c-4.0828857-19.6992188-10.812561-38.3736877-22.243103-55.1047058
			c-5.1169434-7.4896851-11.0209351-14.275116-19.0684204-18.8138428c-1.8949585-1.0687866-4.0085449-1.7446289-5.9342651-2.7658081
			c-2.5750732-1.3654785-3.5847778-4.0486755-2.680603-6.6451416c0.8735962-2.5086975,3.4663086-4.0233154,6.2717285-3.48349
			c1.3046875,0.2510376,2.602417,0.7177734,3.8022461,1.2963562c2.5359497,1.2228394,5.0053101,2.5834656,7.5478516,3.9115295
			c0.1321411-0.3682556,0.2554321-0.5948181,0.2907104-0.8342896c0.0733643-0.4987488,0.1063232-1.0038757,0.1453247-1.5071716
			c1.7905273-23.1039734-3.7543945-44.4695587-15.6651001-64.1780396
			c-16.6336365-27.5232544-40.7789917-46.2976379-70.0995789-58.5949554
			c-31.1134644-13.0492706-63.4555969-16.8464203-96.7734375-11.2284393
			c-28.375824,4.7846832-53.8316345,15.9382935-74.9860535,35.7993164
			c-19.3704987,18.1861877-31.1766815,40.3347778-33.6945648,67.0373383
			c-0.4167633,4.4200592-0.2210236,8.8947144-0.4391174,13.3377228c-0.1527557,3.1118469-2.432785,5.3533936-5.2728271,5.457489
			c-2.8393097,0.1040344-5.1841125-1.9844055-5.6525269-5.0730286c-0.1005402-0.6629639-0.1788788-1.3540344-0.1044159-2.0137329
			c0.1652679-1.4639435-0.4135742-2.2329102-1.7843933-2.8524017c-19.9303436-9.0069275-40.5764465-11.2491608-61.6008148-5.1905518
			c-34.2189789,9.8608551-55.8325806,32.8953094-66.3534775,66.4468842
			c-2.4400406,7.7814026-3.0545044,16.1576538-4.244873,24.2987976c-0.5676956,3.8825073-2.6088562,6.4561157-5.8474426,6.3070679
			c-3.3064728-0.1521606-5.4157486-2.8264465-5.3109894-6.7101746c0.0269775-1.0000305,0.0040512-2.0014343,0.0040512-3.1794434
			c-0.7734375,0.2473755-1.483551,0.4490662-2.1759491,0.6996765c-32.813839,11.8775635-55.2460709,43.4189148-55.75383,78.387207
			c-0.4643879,31.9809875,18.4986553,59.7077942,48.0294037,70.1646729
			c8.4142761,2.9794617,17.0938492,4.2633057,26.2166061,3.9131775c-0.2434464-1.4799805-0.4621887-2.7844543-0.6717224-4.0904541
			c-0.2131805-1.3288574-0.4734726-2.6533203-0.6139755-3.9901123c-0.3199081-3.0438538,1.0258255-5.3594666,3.567421-6.264801
			c3.2570267-1.1601868,6.4873199,0.8581238,7.2553635,4.628479c1.2085571,5.9329224,2.1364517,11.9311218,3.5608673,17.8101501
			c3.0947952,12.7732544,7.1936417,25.2291565,12.5267258,37.2617493
			c12.2029648,27.5325317,29.1265182,51.5427246,52.9435806,70.2871704
			c20.9595337,16.4956055,44.5478058,26.6732788,71.4020233,28.2452393
			c28.4445038,1.6650391,54.0008698-6.6677246,77.0372772-23.1296997
			c12.4994202-8.9321289,23.1393433-19.767334,32.3849792-32.1325684c-1.204895-1.5916748-2.5039673-3.0435181-3.5033875-4.6785278
			c-2.803894-4.5870972-5.6417542-9.1663208-8.157074-13.9124756c-1.6434021-3.1009521-0.3478088-6.4191895,2.5042725-7.7174683
			c2.7720642-1.2617798,5.7824402-0.0563354,7.3833313,2.9637451c0.2362061,0.4455566,0.4411011,0.9077759,0.6582031,1.3633423
			c4.6074219,9.6685791,11.1929016,17.8294067,19.4450989,24.5529785
			c19.8599243,16.1812744,42.5993347,23.0368652,68.0629883,19.8448486
			c13.868103-1.7383423,26.2495728-7.1738892,36.3363342-17.1459961c5.7721558-5.7064819,9.9577332-12.40448,12.3253784-20.244812
			c-1.6642761-0.6360474-3.2120056-1.071167-4.6094971-1.7962036c-2.4626465-1.2776489-3.4998169-3.8823853-2.7485352-6.402832
			c0.730896-2.4520874,3.1409912-4.067749,5.8508606-3.8197632c0.9101257,0.083374,1.7917175,0.4403076,2.6977844,0.6119385
			c5.114624,0.9693604,10.1976929,2.4577026,15.355072,2.7937012c46.4788513,3.02771,83.8766785-38.0449829,76.606842-84.0692139
			C585.7164917,457.249939,579.9147949,445.7352905,570.5518799,435.5677795z"/>
		<path class="st1" d="M570.5518799,435.5677795c9.362915,10.167511,15.1646118,21.6821594,17.253479,34.9070129
			c7.2698364,46.024231-30.1279907,87.0969238-76.606842,84.0692139c-5.1573792-0.3359985-10.240448-1.8243408-15.355072-2.7937012
			c-0.9060669-0.1716309-1.7876587-0.5285645-2.6977844-0.6119385c-2.7098694-0.2479858-5.1199646,1.3676758-5.8508606,3.8197632
			c-0.7512817,2.5204468,0.2858887,5.1251831,2.7485352,6.402832c1.3974915,0.7250366,2.9452209,1.1601562,4.6094971,1.7962036
			c-2.3676453,7.840332-6.5532227,14.5383301-12.3253784,20.244812
			c-10.0867615,9.9721069-22.4682312,15.4076538-36.3363342,17.1459961
			c-25.4636536,3.1920166-48.203064-3.6635742-68.0629883-19.8448486
			c-8.2521973-6.7235718-14.837677-14.8843994-19.4450989-24.5529785c-0.2171021-0.4555664-0.4219971-0.9177856-0.6582031-1.3633423
			c-1.6008911-3.0200806-4.6112671-4.2255249-7.3833313-2.9637451c-2.8520813,1.2982788-4.1476746,4.6165161-2.5042725,7.7174683
			c2.5153198,4.7461548,5.3531799,9.3253784,8.157074,13.9124756c0.9994202,1.6350098,2.2984924,3.086853,3.5033875,4.6785278
			c-9.245636,12.3652344-19.8855591,23.2004395-32.3849792,32.1325684
			c-23.0364075,16.4619751-48.5927734,24.7947388-77.0372772,23.1296997
			c-26.8542175-1.5719604-50.4424896-11.7496338-71.4020233-28.2452393
			c-23.8170624-18.7444458-40.7406158-42.7546387-52.9435806-70.2871704
			c-5.3330841-12.0325928-9.4319305-24.4884949-12.5267258-37.2617493
			c-1.4244156-5.8790283-2.3523102-11.8772278-3.5608673-17.8101501c-0.7680435-3.7703552-3.9983368-5.7886658-7.2553635-4.628479
			c-2.5415955,0.9053345-3.8873291,3.2209473-3.567421,6.264801c0.1405029,1.336792,0.400795,2.6612549,0.6139755,3.9901123
			c0.2095337,1.3059998,0.4282761,2.6104736,0.6717224,4.0904541c-9.122757,0.3501282-17.80233-0.9337158-26.2166061-3.9131775
			c-29.5307503-10.4568787-48.4937935-38.1836853-48.0294037-70.1646729
			c0.5077629-34.9682922,22.9399929-66.5096436,55.75383-78.387207c0.6923981-0.2506104,1.4025116-0.452301,2.1759491-0.6996765
			c0,1.178009,0.0229263,2.1794128-0.0040512,3.1794434c-0.1047592,3.883728,2.0045166,6.5580139,5.3109894,6.7101746
			c3.2385864,0.1490479,5.279747-2.4245605,5.8474426-6.3070679c1.1903687-8.1411438,1.8048325-16.517395,4.244873-24.2987976
			c10.5208969-33.5515747,32.1344986-56.5860291,66.3534775-66.4468842
			c21.0243683-6.058609,41.6704712-3.8163757,61.6008148,5.1905518c1.3708191,0.6194916,1.9496613,1.3884583,1.7843933,2.8524017
			c-0.0744629,0.6596985,0.0038757,1.350769,0.1044159,2.0137329c0.4684143,3.088623,2.8132172,5.177063,5.6525269,5.0730286
			c2.8400421-0.1040955,5.1200714-2.3456421,5.2728271-5.457489c0.2180939-4.4430084,0.0223541-8.9176636,0.4391174-13.3377228
			c2.5178833-26.7025604,14.3240662-48.8511505,33.6945648-67.0373383
			c21.1544189-19.8610229,46.6102295-31.0146332,74.9860535-35.7993164
			c33.3178406-5.617981,65.6599731-1.8208313,96.7734375,11.2284393
			c29.3205872,12.2973175,53.4659424,31.071701,70.0995789,58.5949554
			c11.9107056,19.7084808,17.4556274,41.0740662,15.6651001,64.1780396
			c-0.0390015,0.5032959-0.0719604,1.0084229-0.1453247,1.5071716c-0.0352783,0.2394714-0.1585693,0.4660339-0.2907104,0.8342896
			c-2.5425415-1.328064-5.0119019-2.6886902-7.5478516-3.9115295c-1.1998291-0.5785828-2.4975586-1.0453186-3.8022461-1.2963562
			c-2.8054199-0.5398254-5.3981323,0.9747925-6.2717285,3.48349c-0.9041748,2.5964661,0.1055298,5.2796631,2.680603,6.6451416
			c1.9257202,1.0211792,4.0393066,1.6970215,5.9342651,2.7658081c8.0474854,4.5387268,13.9514771,11.3241577,19.0684204,18.8138428
			c11.430542,16.7310181,18.1602173,35.4054871,22.243103,55.1047058
			c2.918457,14.0809326,4.1889038,28.3101807,3.0960693,42.6927185c-0.8289795,10.9090576-2.8386841,21.5108337-8.052063,31.3084412
			c-1.7562866,3.3006592-0.8196411,6.5930176,2.0388794,8.0482788c2.7698975,1.4101257,5.8516846,0.296814,7.6604614-2.8270874
			C569.0744629,438.5545959,569.7094727,437.197052,570.5518799,435.5677795z M394.1144409,333.8249817
			c1.3581238,0,2.0910034-0.0131531,2.8232727,0.0019836c12.0422363,0.2487488,24.087738,0.7625122,36.1246338,0.6072388
			c4.0725403-0.0525208,7.4202271,0.7542419,10.4805603,3.1607666c6.8748474,5.40625,12.6830139,11.7670593,17.3935547,19.1742554
			c2.022644,3.180481,2.5930481,6.4397278,2.2172241,10.0912476c-0.3785095,3.6781616-0.68573,7.3857727-0.6686707,11.0788269
			c0.0899353,19.4580688,0.2610168,38.9159851,0.4670715,58.3732605c0.131012,12.3762512,0.3859253,24.7511902,0.553009,37.1271667
			c0.0387573,2.8690796,0.0602112,5.7054443-2.4420471,7.8844604c-6.3480835,5.5279846-12.556488,11.2178345-18.9629211,16.6761169
			c-1.1724548,0.9989014-3.026123,1.7372131-4.5471802,1.7061768c-18.440155-0.3769226-36.8760376-0.9583435-55.3158264-1.3604736
			c-1.7540588-0.0382996-3.7910156,0.3487549-5.2480164,1.2575684c-9.9914856,6.2323303-14.2009277,15.460022-13.0026245,27.0378418
			c1.1487732,11.0986328,9.9325256,19.8532715,22.304718,19.7886963c17.6049194-0.0918579,35.2098083-0.477417,52.813446-0.4092407
			c8.1516113,0.0315552,15.3534241-2.2564697,22.1247864-6.5922852
			c17.0427551-10.9129028,31.6702576-24.4586182,44.4229126-40.1244202
			c4.2361755-5.2038269,8.4555664-10.3119507,8.6021118-17.4911499c0.0498657-2.43927,0.2666626-4.8764343,0.2754517-7.315033
			c0.0762939-21.2275085,0.1142578-42.4551697,0.1807861-63.6827393
			c0.0488281-15.5835876-0.0690918-31.1716309,0.2908325-46.7483521c0.1264648-5.4759216-0.630127-10.4414368-3.1917419-15.2872009
			c-7.0812073-13.3956299-15.6325073-25.7530823-25.7816467-36.9861755
			c-9.5816956-10.6050415-20.0681763-19.9931335-34.2833252-23.9884033
			c-2.3299255-0.6548157-4.7263184-1.4530945-7.1043701-1.495697c-17.0114746-0.3048096-34.026123-0.4314575-51.0397949-0.612915
			c-0.8428955-0.0089722-1.6859741-0.0011597-2.5289612-0.0011597c-0.1028442-0.262207-0.205658-0.5244141-0.3085022-0.7866516
			c0.5514832-0.3879089,1.1762695-0.7030334,1.6437378-1.1742554
			c10.7931213-10.8804016,21.5888062-21.7584229,32.3325806-32.6874695c2.2769165-2.3161774,2.2579041-3.9009552,0.0223389-6.318512
			c-2.3422852-2.5329285-4.8282166-4.9332733-7.2598267-7.3831482
			c-5.3961792-5.4368134-10.7312622-10.9367371-16.2253113-16.2728882c-2.6950989-2.6175995-3.9758301-2.5457611-6.6576538,0.025238
			c-4.1930847,4.0197754-8.3095398,8.1209259-12.4064941,12.2393188
			c-18.2349243,18.3303528-36.4997559,36.6314697-54.6365356,55.0585938
			c-3.9680786,4.0316162-7.471283,8.5673523-7.8969421,14.5734253c-0.2736816,3.8615417-0.4837341,7.7545166-0.3039246,11.6138916
			c0.1889648,4.0561829,0.9971313,8.1717224,3.871582,11.2333374c4.4324951,4.7210693,9.201355,9.125061,13.7972107,13.6940918
			c19.4032288,19.2901611,38.7908325,38.5960083,58.1951294,57.8851318c3.5344849,3.5134583,5.0215454,3.2814331,8.79776-0.2643433
			c7.539856-7.0797729,15.1889954-14.0472107,22.9239197-20.9135132c3.9067688-3.4680176,4.2347107-6.3313293,0.6286926-9.9627991
			c-1.0086365-1.0157776-1.9985657-2.0508728-3.0279541-3.045105
			C414.5708313,353.5600586,404.5735779,343.9172363,394.1144409,333.8249817z M268.3326416,543.4978638
			c0.1305542,0.3291016,0.2611389,0.6582642,0.3916931,0.9873657c-0.9710693,0.8859253-1.9824524,1.7318726-2.9070435,2.6639404
			c-10.3782043,10.4621582-20.7610931,20.9198608-31.0957794,31.4249268
			c-1.979599,2.0122681-2.0310974,3.6894531-0.1572266,5.7506104c2.489624,2.7384644,5.1435242,5.3287964,7.7546234,7.9552002
			c5.3985748,5.4301147,10.7370605,10.9237061,16.2591553,16.225708c2.6337585,2.5287476,3.8179932,2.4260864,6.439209-0.1339111
			c6.1436768-6.0001221,12.2193298-12.0706177,18.27771-18.1572266
			c16.2209473-16.2962646,32.4681702-32.5670776,48.5900574-48.9609375
			c4.0266113-4.0944824,7.6332092-8.6565552,8.0908203-14.7423096c0.2964783-3.9428101,0.4700317-7.9234009,0.2768555-11.866394
			c-0.1945496-3.9709473-1.1051636-7.918335-3.8291626-11.002533c-2.2778931-2.5791626-4.9341431-4.8211365-7.3802185-7.2552185
			c-21.5389099-21.4333496-43.0628662-42.8817749-64.6059265-64.3109741
			c-3.5905762-3.5716248-5.193634-3.2511292-8.9964447,0.3710022c-7.3662109,7.0162964-14.8708496,13.8969727-22.5261993,20.5960388
			c-4.0827637,3.5728149-4.5659485,6.5084534-0.698288,10.28125c10.3668823,10.1126709,20.7910767,20.1665955,31.1871185,30.2494202
			c0.5582275,0.5413818,1.0674744,1.1332703,1.8908691,2.0129089c-1.3899231,0-2.2906189,0.0150757-3.1907349-0.0022583
			c-11.8737946-0.228363-23.7501984-0.6972351-35.6197815-0.5629272c-4.0600281,0.0459595-7.4165802-0.7816772-10.4762421-3.2209473
			c-6.8352051-5.4492493-12.6461487-11.7955322-17.3479462-19.2124939
			c-1.8822327-2.9691772-2.4335022-5.9756775-2.1988678-9.3427429c0.309845-4.4469299,0.7038116-8.9043579,0.6817627-13.3553772
			c-0.1355896-27.3755188-0.3654938-54.7506104-0.6001434-82.1255188c-0.0324249-3.7822876-0.3244476-7.5618896-0.385498-11.3445129
			c-0.0487518-3.0210571-0.1718445-6.0446472,2.4935913-8.3609619c6.3528442-5.520752,12.5410156-11.2337341,18.9775238-16.6531067
			c1.2673492-1.0670776,3.3618317-1.6659851,5.0574646-1.6312561c18.4407043,0.3776245,36.8772736,0.9548645,55.3173981,1.3694153
			c1.5090637,0.033905,3.2521973-0.3804016,4.5203247-1.172699c9.9682922-6.2281799,14.2539673-15.376709,13.1648254-26.9827576
			c-1.0377808-11.0591431-10.047699-20.0806885-22.3978271-19.9294739
			c-17.7720337,0.2175903-35.546051,0.4891968-53.3177948,0.4122009c-7.8135223-0.033844-14.6808319,2.2408752-21.1732178,6.3208923
			c-19.0575104,11.9763184-34.9026337,27.4201965-48.5649567,45.1615906
			c-1.9301758,2.5064392-3.3999329,5.6817932-4.0690765,8.767334c-0.8818817,4.0664368-1.0034027,8.3486938-1.030777,12.5408936
			c-0.1420135,21.7319946-0.1411896,43.4649048-0.2075348,65.1974792
			c-0.0452576,14.8251038,0.1628418,29.6592712-0.3170624,44.4707642c-0.1955566,6.0352783,1.1445923,11.306366,4.1105194,16.315918
			c3.3840179,5.7156677,6.684967,11.5015869,10.4280853,16.9794617
			c8.9279175,13.0655518,18.9988403,25.1923828,32.0372162,34.3773804
			c8.6520233,6.0949707,18.2651978,9.9933472,29.1562347,9.8232422c4.3785553-0.0684204,8.7598877,0.0631104,13.1399841,0.0675659
			C245.0988159,543.5056763,256.7157288,543.4978638,268.3326416,543.4978638z M259.290741,349.9950867
			c0-0.0161133,0-0.0321655,0-0.0482788c8.3311768,0,16.662384,0.0061035,24.9935303-0.008606
			c0.9189758-0.0016479,2.084137,0.2039185,2.7009888-0.2617493c1.0158691-0.7668762,2.3613892-2.0489807,2.2966614-3.0300598
			c-0.0658264-0.9984131-1.5353088-2.1286011-2.6422424-2.7572327c-0.7738342-0.4395142-1.9716797-0.1569824-2.9801025-0.1552429
			c-16.0733948,0.0282593-32.1467438,0.0739441-48.2201385,0.0930481
			c-10.668808,0.0126953-18.9326935,4.7107544-25.0930634,13.1656799
			c-3.9436188,5.4125061-5.5269775,11.6436462-5.1051941,18.3415527c0.1250458,1.9854126,1.0400391,3.517334,3.2256622,3.4329529
			c2.1698303-0.0837708,2.9903564-1.5906982,2.914505-3.6465454c-0.0124054-0.3363037-0.0416412-0.6721497-0.0471954-1.0084534
			c-0.2157593-13.092804,10.6109314-24.1035461,23.7202606-24.1156921
			C243.133194,349.9889526,251.2119751,349.9950867,259.290741,349.9950867z M205.7027588,422.9950256
			c0.0172119,0,0.0344238,0,0.0516205,0c0,9.1777039-0.0019836,18.3553772,0.0036926,27.5330505
			c0.0004578,0.7562866-0.0490265,1.5335693,0.1014709,2.264679c0.3482819,1.691925,1.5174255,2.9624023,3.1559601,2.5353088
			c1.1017914-0.2872314,2.0080414-1.6625366,2.7810822-2.7134094c0.3280945-0.4459839,0.1085358-1.3077393,0.1082153-1.9805298
			c-0.0085602-18.2712097-0.0188293-36.5423584-0.0348358-54.8135681c-0.0027008-3.0889282-1.0077972-4.6086731-3.036377-4.6527405
			c-2.0410767-0.0444336-3.1277618,1.5214539-3.1292419,4.5467834
			C205.6999359,404.808075,205.7027588,413.9015503,205.7027588,422.9950256z M406.6411438,478.2978516
			c0-0.0493774,0-0.0987854,0-0.1481628c-3.447052,0-6.8942261,0.0191956-10.3411255-0.0046692
			c-4.7915039-0.0332031-9.5830994-0.1506958-14.374115-0.1246948c-1.9290161,0.010498-3.5859985,0.8016968-3.6064148,3.0259094
			c-0.0199585,2.1775208,1.5232544,3.016571,3.4928589,3.191864c0.5843811,0.052063,1.176178,0.0232849,1.7646484,0.0261841
			c15.4696045,0.0761108,30.939209,0.1539001,46.4088745,0.2198486c0.7507629,0.0032043,1.536438,0.0237732,2.2463379-0.1756592
			c1.8757935-0.5269775,3.0468445-2.7651062,1.8938904-4.1193237c-0.8400574-0.9868164-2.4779053-1.7829895-3.777771-1.8098755
			C422.4487915,478.2160339,414.5440979,478.2978516,406.6411438,478.2978516z M455.4715881,440.7832336
			c0.1340637,0.0001526,0.2681885,0.0003357,0.4022522,0.0004883c0-5.3875427,0.01651-10.7751465-0.0092163-16.1625671
			c-0.0086365-1.8029785-0.743042-3.2648926-2.7277527-3.2683411c-2.1325989-0.0036926-2.7895508,1.5567322-2.8273621,3.446991
			c-0.1719055,8.5829773-0.3200378,17.1664429-0.5145569,25.7489014c-0.135437,5.9730225-0.0130615,11.9873352-4.2992859,16.9665222
			c-1.2528992,1.4554749-1.0209045,3.2626038,0.6851807,4.3988953c1.5710449,1.0463257,3.0864563,0.5766907,4.2369995-0.8474426
			c2.7474976-3.4008179,4.9038391-7.1394348,5.0148926-11.6126099
			C455.5871887,453.2339783,455.4715881,447.0071411,455.4715881,440.7832336z M449.88974,389.0646973
			c0.0477295,0,0.095459,0,0.1431885,0c0,2.7729492-0.023468,5.5461426,0.0064697,8.3187866
			c0.0308533,2.8557434,0.0419006,5.7149048,0.1994629,8.5649414c0.101593,1.8382874,1.203949,3.0054626,3.0875854,2.9856567
			c1.7705078-0.0185852,2.6750793-1.2200012,2.9759216-2.8804321c0.0889893-0.4912415,0.0830383-1.0044861,0.0779724-1.5072327
			c-0.1033936-10.250885-0.2020874-20.5019226-0.3287048-30.7525635c-0.0320129-2.5910339-1.2447815-4.085083-3.1413269-4.0227051
			c-1.8764343,0.0617371-3.0049438,1.5822449-3.0148621,4.1684875
			C449.8760986,378.9812317,449.88974,384.0230103,449.88974,389.0646973z"/>
		<path class="st2" d="M394.1144409,333.8249817c10.459137,10.0922546,20.4563904,19.7350769,30.447052,29.3847046
			c1.0293884,0.9942322,2.0193176,2.0293274,3.0279541,3.045105c3.6060181,3.6314697,3.2780762,6.4947815-0.6286926,9.9627991
			c-7.7349243,6.8663025-15.3840637,13.8337402-22.9239197,20.9135132c-3.7762146,3.5457764-5.2632751,3.7778015-8.79776,0.2643433
			c-19.4042969-19.2891235-38.7919006-38.5949707-58.1951294-57.8851318
			c-4.5958557-4.5690308-9.3647156-8.9730225-13.7972107-13.6940918c-2.8744507-3.061615-3.6826172-7.1771545-3.871582-11.2333374
			c-0.1798096-3.859375,0.0302429-7.7523499,0.3039246-11.6138916c0.4256592-6.006073,3.9288635-10.5418091,7.8969421-14.5734253
			c18.1367798-18.427124,36.4016113-36.728241,54.6365356-55.0585938
			c4.0969543-4.1183929,8.2134094-8.2195435,12.4064941-12.2393188c2.6818237-2.5709991,3.9625549-2.6428375,6.6576538-0.025238
			c5.4940491,5.3361511,10.8291321,10.8360748,16.2253113,16.2728882c2.4316101,2.4498749,4.9175415,4.8502197,7.2598267,7.3831482
			c2.2355652,2.4175568,2.2545776,4.0023346-0.0223389,6.318512
			c-10.7437744,10.9290466-21.5394592,21.8070679-32.3325806,32.6874695
			c-0.4674683,0.4712219-1.0922546,0.7863464-1.6437378,1.1742554c0.1028442,0.2622375,0.205658,0.5244446,0.3085022,0.7866516
			c0.8429871,0,1.6860657-0.0078125,2.5289612,0.0011597c17.0136719,0.1814575,34.0283203,0.3081055,51.0397949,0.612915
			c2.3780518,0.0426025,4.7744446,0.8408813,7.1043701,1.495697c14.2151489,3.9952698,24.7016296,13.3833618,34.2833252,23.9884033
			c10.1491394,11.2330933,18.7004395,23.5905457,25.7816467,36.9861755
			c2.561615,4.8457642,3.3182068,9.8112793,3.1917419,15.2872009c-0.3599243,15.5767212-0.2420044,31.1647644-0.2908325,46.7483521
			c-0.0665283,21.2275696-0.1044922,42.4552307-0.1807861,63.6827393c-0.0087891,2.4385986-0.2255859,4.8757629-0.2754517,7.315033
			c-0.1465454,7.1791992-4.3659363,12.287323-8.6021118,17.4911499
			c-12.752655,15.665802-27.3801575,29.2115173-44.4229126,40.1244202
			c-6.7713623,4.3358154-13.973175,6.6238403-22.1247864,6.5922852c-17.6036377-0.0681763-35.2085266,0.3173828-52.813446,0.4092407
			c-12.3721924,0.0645752-21.1559448-8.6900635-22.304718-19.7886963
			c-1.1983032-11.5778198,3.0111389-20.8055115,13.0026245-27.0378418c1.4570007-0.9088135,3.4939575-1.2958679,5.2480164-1.2575684
			c18.4397888,0.4021301,36.8756714,0.983551,55.3158264,1.3604736c1.5210571,0.0310364,3.3747253-0.7072754,4.5471802-1.7061768
			c6.4064331-5.4582825,12.6148376-11.1481323,18.9629211-16.6761169c2.5022583-2.1790161,2.4808044-5.0153809,2.4420471-7.8844604
			c-0.1670837-12.3759766-0.4219971-24.7509155-0.553009-37.1271667
			c-0.2060547-19.4572754-0.3771362-38.9151917-0.4670715-58.3732605
			c-0.0170593-3.6930542,0.2901611-7.4006653,0.6686707-11.0788269c0.375824-3.6515198-0.1945801-6.9107666-2.2172241-10.0912476
			c-4.7105408-7.407196-10.5187073-13.7680054-17.3935547-19.1742554c-3.0603333-2.4065247-6.40802-3.2132874-10.4805603-3.1607666
			c-12.0368958,0.1552734-24.0823975-0.35849-36.1246338-0.6072388
			C396.2054443,333.8118286,395.4725647,333.8249817,394.1144409,333.8249817z M397.415802,234.0697479
			c0.1691895-0.2604523,0.3383789-0.5208893,0.5075684-0.7813263c-0.6614075,0.6284027-1.339325,1.2403412-1.9817505,1.8875885
			c-20.6426392,20.7978516-41.3043213,41.5769501-61.8699036,62.4507599
			c-1.3418579,1.361969-2.4771729,3.3692627-2.773407,5.2256165c-0.5788574,3.6272278-0.7696228,7.3743896-0.5766296,11.0432434
			c0.1026611,1.9507751,0.8319397,4.3466187,2.1491699,5.6836853
			c19.5595093,19.8543701,39.2631531,39.5667419,58.9383545,59.3070984
			c2.4065247,2.4144897,4.8456726,4.7964783,7.3683472,7.2911682c5.8261414-5.3582153,11.3739014-10.4603271,16.399231-15.0820312
			c-3.8110962-4.1080933-7.3201904-8.2091064-11.1627502-11.9694214
			c-9.3248901-9.1253052-18.8155823-18.0810547-28.2133484-27.1322327c-1.8915405-1.8217468-2.3753357-4.5763245-1.348999-6.7251892
			c1.0500488-2.1984558,3.31604-3.3181458,6.128479-3.012207c0.9176025,0.0997925,1.8296814,0.3205566,2.747345,0.3398132
			c17.0852661,0.3585205,34.1701355,0.7559509,51.2572327,0.990448c3.9503479,0.0541992,7.3821716,1.319519,10.7631836,3.122345
			c8.1074829,4.3230896,14.5237427,10.4977417,20.08255,17.734436c4.399353,5.7272644,7.7290344,11.7464905,7.7622986,19.230072
			c0.1014404,22.8227539,0.3157043,45.6448975,0.4234619,68.4675903
			c0.0708008,14.9933472,0.1385193,29.9885864-0.0657043,44.9793091c-0.0317383,2.3315735-0.9039307,5.2370605-2.4526367,6.861969
			c-7.020874,7.3663635-14.4176941,14.3749084-21.691864,21.4992981c-3.0823975,3.0190125-6.8415833,4.6106567-11.1142273,4.7251282
			c-5.2019958,0.1394348-10.4112854,0.1203003-15.6154785,0.0411072c-12.375824-0.1882629-24.7588501-0.2584839-37.1213379-0.787262
			c-4.5501099-0.1946411-7.2337646,1.7644958-8.9499207,5.4245605c-1.0867615,2.317749-1.9998169,4.8884277-2.2069092,7.4100342
			c-0.3880005,4.7240601,1.9703674,11.8582764,7.9480591,12.3182983c1.8180542,0.1399536,3.6158447,0.7584229,5.4243164,0.7647705
			c4.7952881,0.0169067,9.5908203-0.2424927,14.3871765-0.2810059c12.2142334-0.0982056,24.4297791-0.0735474,36.6431274-0.2277222
			c5.1009216-0.0643311,10.1005859-1.1901855,14.4450073-3.8521118
			c17.5545959-10.7561035,32.4573364-24.4616089,44.897644-40.8815918c3.4943237-4.6121826,5.344574-9.4587708,5.0224304-15.3933411
			c-0.3910217-7.2042236-0.0969849-14.4469299-0.061676-21.6727905c0.1171875-24.0015869,0.2196655-48.0033264,0.3999634-72.0044556
			c0.0486755-6.4761658,0.4778748-12.9505615,0.466095-19.4253235c-0.0036621-2.0085449-0.7229309-4.0739136-1.416687-6.0046997
			c-0.5619507-1.5639648-1.5671692-2.9706421-2.3925781-4.4377136
			c-10.1218872-17.9909058-22.3684082-34.2461243-38.8817139-46.9133911
			c-6.1911011-4.749176-13.0139771-7.6761169-21.1817627-7.5405273c-16.6732178,0.276825-33.3548279,0.0747986-50.0327759,0.0201111
			c-3.8677063-0.0126648-7.7374878-0.1703796-11.6012573-0.3623657c-3.745697-0.1861572-5.9468384-3.5458374-4.8792114-7.132782
			c0.8113403-2.7259521,2.1162109-5.0380859,4.2659912-6.9870911c2.7423401-2.4862366,5.2631836-5.2167969,7.8798218-7.8417358
			c8.2026367-8.2286987,16.4075012-16.4551697,24.6049194-24.6890564c0.8038635-0.8074188,2.0161743-1.5726471,0.6184082-2.8604584
			C406.7109375,242.6131592,402.0621643,238.3427582,397.415802,234.0697479z"/>
		<path class="st3" d="M268.3326416,543.4978638c-11.6169128,0-23.2338257,0.0078125-34.850708-0.0040283
			c-4.3800964-0.0044556-8.7614288-0.1359863-13.1399841-0.0675659c-10.891037,0.170105-20.5042114-3.7282715-29.1562347-9.8232422
			c-13.0383759-9.1849976-23.1092987-21.3118286-32.0372162-34.3773804
			c-3.7431183-5.4778748-7.0440674-11.2637939-10.4280853-16.9794617c-2.9659271-5.009552-4.306076-10.2806396-4.1105194-16.315918
			c0.4799042-14.8114929,0.2718048-29.6456604,0.3170624-44.4707642
			c0.0663452-21.7325745,0.0655212-43.4654846,0.2075348-65.1974792c0.0273743-4.1921997,0.1488953-8.4744568,1.030777-12.5408936
			c0.6691437-3.0855408,2.1389008-6.2608948,4.0690765-8.767334c13.662323-17.741394,29.5074463-33.1852722,48.5649567-45.1615906
			c6.4923859-4.0800171,13.3596954-6.3547363,21.1732178-6.3208923c17.7717438,0.0769958,35.5457611-0.1946106,53.3177948-0.4122009
			c12.3501282-0.1512146,21.3600464,8.8703308,22.3978271,19.9294739
			c1.0891418,11.6060486-3.1965332,20.7545776-13.1648254,26.9827576c-1.2681274,0.7922974-3.011261,1.206604-4.5203247,1.172699
			c-18.4401245-0.4145508-36.8766937-0.9917908-55.3173981-1.3694153c-1.6956329-0.034729-3.7901154,0.5641785-5.0574646,1.6312561
			c-6.4365082,5.4193726-12.6246796,11.1323547-18.9775238,16.6531067
			c-2.6654358,2.3163147-2.5423431,5.3399048-2.4935913,8.3609619c0.0610504,3.7826233,0.3530731,7.5622253,0.385498,11.3445129
			c0.2346497,27.3749084,0.4645538,54.75,0.6001434,82.1255188c0.022049,4.4510193-0.3719177,8.9084473-0.6817627,13.3553772
			c-0.2346344,3.3670654,0.3166351,6.3735657,2.1988678,9.3427429c4.7017975,7.4169617,10.5127411,13.7632446,17.3479462,19.2124939
			c3.0596619,2.43927,6.416214,3.2669067,10.4762421,3.2209473c11.8695831-0.1343079,23.7459869,0.3345642,35.6197815,0.5629272
			c0.900116,0.017334,1.8008118,0.0022583,3.1907349,0.0022583c-0.8233948-0.8796387-1.3326416-1.4715271-1.8908691-2.0129089
			c-10.3960419-10.0828247-20.8202362-20.1367493-31.1871185-30.2494202
			c-3.8676605-3.7727966-3.3844757-6.7084351,0.698288-10.28125c7.6553497-6.6990662,15.1599884-13.5797424,22.5261993-20.5960388
			c3.8028107-3.6221313,5.4058685-3.942627,8.9964447-0.3710022c21.5430603,21.4291992,43.0670166,42.8776245,64.6059265,64.3109741
			c2.4460754,2.434082,5.1023254,4.6760559,7.3802185,7.2552185c2.723999,3.084198,3.634613,7.0315857,3.8291626,11.002533
			c0.1931763,3.9429932,0.0196228,7.923584-0.2768555,11.866394c-0.4576111,6.0857544-4.064209,10.6478271-8.0908203,14.7423096
			c-16.1218872,16.3938599-32.3691101,32.6646729-48.5900574,48.9609375
			c-6.0583801,6.0866089-12.1340332,12.1571045-18.27771,18.1572266c-2.6212158,2.5599976-3.8054504,2.6626587-6.439209,0.1339111
			c-5.5220947-5.302002-10.8605804-10.7955933-16.2591553-16.225708c-2.6110992-2.6264038-5.2649994-5.2167358-7.7546234-7.9552002
			c-1.8738708-2.0611572-1.8223724-3.7383423,0.1572266-5.7506104
			c10.3346863-10.5050659,20.7175751-20.9627686,31.0957794-31.4249268
			c0.9245911-0.9320679,1.9359741-1.7780151,2.9070435-2.6639404
			C268.5937805,544.1561279,268.4631958,543.8269653,268.3326416,543.4978638z M243.5188751,458.8097534
			c0.6634674,0.7088928,1.1491089,1.2747803,1.6827393,1.7909851c12.6478119,12.23526,25.2961273,24.4699402,37.9575348,36.6911316
			c2.0238647,1.9534607,2.6934814,4.2993469,1.7675781,6.5786133c-0.9429016,2.3210754-2.8809204,3.4045105-5.9313354,3.2806702
			c-3.1101074-0.1262207-6.2179565-0.3482971-9.3290405-0.4042358c-14.732254-0.2649841-29.464859-0.5187683-44.1982727-0.7048645
			c-4.0732422-0.0514526-7.6943512-1.3231812-11.279007-3.1582336c-7.7409668-3.9628601-13.8282471-9.7834778-19.2473755-16.430481
			c-4.9752655-6.1025085-8.8648834-12.5887756-8.8954773-20.8685303
			c-0.1030273-27.8778687-0.3528442-55.7551575-0.5016022-83.6329041
			c-0.0525818-9.8547363-0.0869446-19.7125549,0.1287231-29.5632935c0.0470123-2.1480713,0.5745087-4.8654785,1.9460144-6.307312
			c7.0757599-7.4386597,14.5046539-14.5409851,21.7967834-21.7743225c3.4646606-3.4367065,7.6711884-5.0870972,12.4954224-5.1749878
			c4.1099854-0.0748901,8.2230988-0.0991516,12.3330383-0.0340576c11.3663025,0.1799927,22.7318115,0.4118958,34.0971985,0.6437073
			c1.1729431,0.0238953,2.3413391,0.2260742,3.514801,0.2747803c3.0020447,0.1246338,6.0097656,0.5936279,8.4481812-2.0474854
			c3.1518555-3.4138184,4.7334595-7.4930115,4.5984497-11.9492493c-0.1492615-4.9273987-2.0904846-10.4562683-8.649292-11.3552856
			c-2.1254578-0.2913513-4.2919006-0.4215088-6.4377747-0.4038696c-16.84198,0.1383972-33.6880646,0.1647034-50.5218048,0.627533
			c-4.0052948,0.1101379-8.4921722,0.841156-11.8648987,2.8132019
			c-18.7549286,10.966156-34.4473724,25.4359131-47.2897797,42.9983215
			c-2.7954102,3.8227844-4.089859,7.8266907-4.0281982,12.6387329c0.1942596,15.1607971,0.0432434,30.3262024,0.0013275,45.4897766
			c-0.0197906,7.1596069-0.0868073,14.3191528-0.1480865,21.4786072c-0.0735168,8.5875854-0.1373596,17.175354-0.2553711,25.7623596
			c-0.0876465,6.3778687-0.3382874,12.7544861-0.3457184,19.131897c-0.0029755,2.5596924-0.2935638,5.5099792,0.8120422,7.6192322
			c10.4066772,19.8540955,23.2455597,37.8736572,41.0967407,51.8225708
			c6.1124115,4.7762451,12.7833405,8.1847534,21.00737,7.9889526c12.2769775-0.2923584,24.5660553-0.1294556,36.8495941-0.0753174
			c7.2388763,0.0318604,14.477005,0.2282715,21.7154694,0.348938c1.3475342,0.0224609,2.7038879-0.0545044,4.0410156,0.0733032
			c2.8536072,0.2727051,5.5612793,2.8006592,5.0293579,5.3156128c-0.5354004,2.5317383-1.4328918,5.4118652-3.1500854,7.199585
			c-11.022644,11.4755249-22.3156738,22.6913452-33.5139465,33.9983521
			c-0.6264343,0.6325073-1.2009125,1.3164673-2.2236328,2.4440308c5.1199951,4.723877,10.0495911,9.2720947,14.9485474,13.7920532
			c2.4761047-2.4168701,5.1856079-5.0258179,7.855957-7.6742554c9.9230347-9.8413086,19.8722839-19.6567383,29.7362366-29.5570068
			c8.2610474-8.2914429,16.2808228-16.8283691,24.6877441-24.96698c3.2573853-3.1534424,4.4895325-6.7709961,4.7601013-10.9801636
			c0.129425-2.0141602,0.0927429-4.0427246,0.0517578-6.0631104c-0.0617981-3.0424194-1.0023499-5.6002197-3.2874146-7.8728638
			c-18.3928833-18.2927246-36.6922607-36.6795959-55.0105896-55.0472107
			c-3.3769531-3.3861084-6.7103882-6.8155823-10.1950684-10.3583679
			C254.7605438,448.5267944,249.1897888,453.6224365,243.5188751,458.8097534z"/>
		<path class="st4" d="M259.290741,349.9950867c-8.0787659,0-16.157547-0.006134-24.2363281,0.0013733
			c-13.1093292,0.012146-23.9360199,11.0228882-23.7202606,24.1156921c0.0055542,0.3363037,0.03479,0.6721497,0.0471954,1.0084534
			c0.0758514,2.0558472-0.7446747,3.5627747-2.914505,3.6465454c-2.1856232,0.0843811-3.1006165-1.4475403-3.2256622-3.4329529
			c-0.4217834-6.6979065,1.1615753-12.9290466,5.1051941-18.3415527
			c6.1603699-8.4549255,14.4242554-13.1529846,25.0930634-13.1656799
			c16.0733948-0.019104,32.1467438-0.0647888,48.2201385-0.0930481c1.0084229-0.0017395,2.2062683-0.2842712,2.9801025,0.1552429
			c1.1069336,0.6286316,2.576416,1.7588196,2.6422424,2.7572327c0.0647278,0.9810791-1.2807922,2.2631836-2.2966614,3.0300598
			c-0.6168518,0.4656677-1.7820129,0.2601013-2.7009888,0.2617493c-8.3311462,0.0147095-16.6623535,0.008606-24.9935303,0.008606
			C259.290741,349.9629211,259.290741,349.9789734,259.290741,349.9950867z"/>
		<path class="st0" d="M205.7027588,422.9950256c0-9.0934753-0.0028229-18.1869507,0.0015869-27.280426
			c0.0014801-3.0253296,1.0881653-4.591217,3.1292419-4.5467834c2.0285797,0.0440674,3.0336761,1.5638123,3.036377,4.6527405
			c0.0160065,18.2712097,0.0262756,36.5423584,0.0348358,54.8135681c0.0003204,0.6727905,0.2198792,1.5345459-0.1082153,1.9805298
			c-0.7730408,1.0508728-1.6792908,2.426178-2.7810822,2.7134094c-1.6385345,0.4270935-2.8076782-0.8433838-3.1559601-2.5353088
			c-0.1504974-0.7311096-0.1010132-1.5083923-0.1014709-2.264679c-0.0056763-9.1776733-0.0036926-18.3553467-0.0036926-27.5330505
			C205.7371826,422.9950256,205.7199707,422.9950256,205.7027588,422.9950256z"/>
		<path class="st5" d="M406.6411438,478.2978516c7.9029541,0,15.8076477-0.0818176,23.7071838,0.0814209
			c1.2998657,0.026886,2.9377136,0.8230591,3.777771,1.8098755c1.1529541,1.3542175-0.0180969,3.5923462-1.8938904,4.1193237
			c-0.7098999,0.1994324-1.495575,0.1788635-2.2463379,0.1756592c-15.4696655-0.0659485-30.93927-0.1437378-46.4088745-0.2198486
			c-0.5884705-0.0028992-1.1802673,0.0258789-1.7646484-0.0261841c-1.9696045-0.175293-3.5128174-1.0143433-3.4928589-3.191864
			c0.0204163-2.2242126,1.6773987-3.0154114,3.6064148-3.0259094c4.7910156-0.026001,9.5826111,0.0914917,14.374115,0.1246948
			c3.4468994,0.0238647,6.8940735,0.0046692,10.3411255,0.0046692
			C406.6411438,478.1990662,406.6411438,478.2484741,406.6411438,478.2978516z"/>
		<path class="st6" d="M455.4715881,440.7832336c0,6.2239075,0.1156006,12.4507446-0.0388489,18.6708374
			c-0.1110535,4.473175-2.267395,8.211792-5.0148926,11.6126099c-1.1505432,1.4241333-2.6659546,1.8937683-4.2369995,0.8474426
			c-1.7060852-1.1362915-1.9380798-2.9434204-0.6851807-4.3988953c4.2862244-4.979187,4.1638489-10.9934998,4.2992859-16.9665222
			c0.194519-8.5824585,0.3426514-17.1659241,0.5145569-25.7489014c0.0378113-1.8902588,0.6947632-3.4506836,2.8273621-3.446991
			c1.9847107,0.0034485,2.7191162,1.4653625,2.7277527,3.2683411c0.0257263,5.3874207,0.0092163,10.7750244,0.0092163,16.1625671
			C455.7397766,440.7835693,455.6056519,440.7833862,455.4715881,440.7832336z"/>
		<path class="st7" d="M449.88974,389.0646973c0-5.041687-0.0136414-10.0834656,0.0057068-15.125061
			c0.0099182-2.5862427,1.1384277-4.1067505,3.0148621-4.1684875c1.8965454-0.0623779,3.109314,1.4316711,3.1413269,4.0227051
			c0.1266174,10.2506409,0.2253113,20.5016785,0.3287048,30.7525635c0.0050659,0.5027466,0.0110168,1.0159912-0.0779724,1.5072327
			c-0.3008423,1.6604309-1.2054138,2.8618469-2.9759216,2.8804321c-1.8836365,0.0198059-2.9859924-1.1473694-3.0875854-2.9856567
			c-0.1575623-2.8500366-0.1686096-5.709198-0.1994629-8.5649414c-0.0299377-2.772644-0.0064697-5.5458374-0.0064697-8.3187866
			C449.985199,389.0646973,449.9374695,389.0646973,449.88974,389.0646973z"/>
		<path class="st8" d="M397.415802,234.0697479c4.6463623,4.2730103,9.2951355,8.5434113,13.9376526,12.8206177
			c1.3977661,1.2878113,0.1854553,2.0530396-0.6184082,2.8604584c-8.1974182,8.2338867-16.4022827,16.4603577-24.6049194,24.6890564
			c-2.6166382,2.624939-5.1374817,5.3554993-7.8798218,7.8417358c-2.1497803,1.9490051-3.4546509,4.2611389-4.2659912,6.9870911
			c-1.067627,3.5869446,1.1335144,6.9466248,4.8792114,7.132782c3.8637695,0.1919861,7.733551,0.3497009,11.6012573,0.3623657
			c16.677948,0.0546875,33.3595581,0.2567139,50.0327759-0.0201111c8.1677856-0.1355896,14.9906616,2.7913513,21.1817627,7.5405273
			c16.5133057,12.6672668,28.7598267,28.9224854,38.8817139,46.9133911
			c0.8254089,1.4670715,1.8306274,2.8737488,2.3925781,4.4377136c0.6937561,1.9307861,1.4130249,3.9961548,1.416687,6.0046997
			c0.0117798,6.474762-0.4174194,12.9491577-0.466095,19.4253235c-0.1802979,24.0011292-0.2827759,48.0028687-0.3999634,72.0044556
			c-0.0353088,7.2258606-0.3293457,14.4685669,0.061676,21.6727905c0.3221436,5.9345703-1.5281067,10.7811584-5.0224304,15.3933411
			c-12.4403076,16.4199829-27.3430481,30.1254883-44.897644,40.8815918
			c-4.3444214,2.6619263-9.3440857,3.7877808-14.4450073,3.8521118c-12.2133484,0.1541748-24.428894,0.1295166-36.6431274,0.2277222
			c-4.7963562,0.0385132-9.5918884,0.2979126-14.3871765,0.2810059c-1.8084717-0.0063477-3.6062622-0.6248169-5.4243164-0.7647705
			c-5.9776917-0.460022-8.3360596-7.5942383-7.9480591-12.3182983c0.2070923-2.5216064,1.1201477-5.0922852,2.2069092-7.4100342
			c1.716156-3.6600647,4.3998108-5.6192017,8.9499207-5.4245605c12.3624878,0.5287781,24.7455139,0.598999,37.1213379,0.787262
			c5.2041931,0.0791931,10.4134827,0.0983276,15.6154785-0.0411072c4.272644-0.1144714,8.0318298-1.7061157,11.1142273-4.7251282
			c7.2741699-7.1243896,14.67099-14.1329346,21.691864-21.4992981c1.5487061-1.6249084,2.4208984-4.5303955,2.4526367-6.861969
			c0.2042236-14.9907227,0.1365051-29.9859619,0.0657043-44.9793091
			c-0.1077576-22.8226929-0.3220215-45.6448364-0.4234619-68.4675903
			c-0.0332642-7.4835815-3.3629456-13.5028076-7.7622986-19.230072c-5.5588074-7.2366943-11.9750671-13.4113464-20.08255-17.734436
			c-3.381012-1.8028259-6.8128357-3.0681458-10.7631836-3.122345c-17.0870972-0.2344971-34.1719666-0.6319275-51.2572327-0.990448
			c-0.9176636-0.0192566-1.8297424-0.2400208-2.747345-0.3398132c-2.812439-0.3059387-5.0784302,0.8137512-6.128479,3.012207
			c-1.0263367,2.1488647-0.5425415,4.9034424,1.348999,6.7251892c9.3977661,9.051178,18.8884583,18.0069275,28.2133484,27.1322327
			c3.8425598,3.7603149,7.3516541,7.8613281,11.1627502,11.9694214c-5.0253296,4.6217041-10.5730896,9.7238159-16.399231,15.0820312
			c-2.5226746-2.4946899-4.9618225-4.8766785-7.3683472-7.2911682
			c-19.6752014-19.7403564-39.3788452-39.4527283-58.9383545-59.3070984
			c-1.3172302-1.3370667-2.0465088-3.7329102-2.1491699-5.6836853c-0.1929932-3.6688538-0.0022278-7.4160156,0.5766296-11.0432434
			c0.2962341-1.8563538,1.4315491-3.8636475,2.773407-5.2256165c20.5655823-20.8738098,41.2272644-41.6529083,61.8699036-62.4507599
			c0.6424255-0.6472473,1.320343-1.2591858,1.9817505-1.8875885
			C397.7541809,233.5488586,397.5849915,233.8092957,397.415802,234.0697479z"/>
		<path class="st8" d="M243.5188751,458.8097534c5.6709137-5.1873169,11.2416687-10.282959,17.055954-15.6014404
			c3.4846802,3.5427856,6.8181152,6.9722595,10.1950684,10.3583679
			c18.3183289,18.3676147,36.6177063,36.7544861,55.0105896,55.0472107c2.2850647,2.272644,3.2256165,4.8304443,3.2874146,7.8728638
			c0.0409851,2.0203857,0.0776672,4.0489502-0.0517578,6.0631104c-0.2705688,4.2091675-1.5027161,7.8267212-4.7601013,10.9801636
			c-8.4069214,8.1386108-16.4266968,16.6755371-24.6877441,24.96698
			c-9.8639526,9.9002686-19.8132019,19.7156982-29.7362366,29.5570068c-2.6703491,2.6484375-5.3798523,5.2573853-7.855957,7.6742554
			c-4.8989563-4.5199585-9.8285522-9.0681763-14.9485474-13.7920532c1.0227203-1.1275635,1.5971985-1.8115234,2.2236328-2.4440308
			c11.1982727-11.3070068,22.4913025-22.5228271,33.5139465-33.9983521c1.7171936-1.7877197,2.6146851-4.6678467,3.1500854-7.199585
			c0.5319214-2.5149536-2.1757507-5.0429077-5.0293579-5.3156128c-1.3371277-0.1278076-2.6934814-0.0508423-4.0410156-0.0733032
			c-7.2384644-0.1206665-14.476593-0.3170776-21.7154694-0.348938c-12.2835388-0.0541382-24.5726166-0.217041-36.8495941,0.0753174
			c-8.2240295,0.1958008-14.8949585-3.2127075-21.00737-7.9889526
			c-17.851181-13.9489136-30.6900635-31.9684753-41.0967407-51.8225708
			c-1.1056061-2.1092529-0.8150177-5.0595398-0.8120422-7.6192322c0.007431-6.3774109,0.2580719-12.7540283,0.3457184-19.131897
			c0.1180115-8.5870056,0.1818542-17.1747742,0.2553711-25.7623596c0.0612793-7.1594543,0.1282959-14.3190002,0.1480865-21.4786072
			c0.0419159-15.1635742,0.1929321-30.3289795-0.0013275-45.4897766c-0.0616608-4.8120422,1.2327881-8.8159485,4.0281982-12.6387329
			c12.8424072-17.5624084,28.5348511-32.0321655,47.2897797-42.9983215
			c3.3727264-1.9720459,7.8596039-2.703064,11.8648987-2.8132019c16.8337402-0.4628296,33.6798248-0.4891357,50.5218048-0.627533
			c2.145874-0.0176392,4.3123169,0.1125183,6.4377747,0.4038696c6.5588074,0.8990173,8.5000305,6.427887,8.649292,11.3552856
			c0.1350098,4.4562378-1.4465942,8.5354309-4.5984497,11.9492493c-2.4384155,2.6411133-5.4461365,2.1721191-8.4481812,2.0474854
			c-1.1734619-0.0487061-2.3418579-0.250885-3.514801-0.2747803c-11.365387-0.2318115-22.730896-0.4637146-34.0971985-0.6437073
			c-4.1099396-0.065094-8.223053-0.0408325-12.3330383,0.0340576c-4.824234,0.0878906-9.0307617,1.7382812-12.4954224,5.1749878
			c-7.2921295,7.2333374-14.7210236,14.3356628-21.7967834,21.7743225c-1.3715057,1.4418335-1.8990021,4.1592407-1.9460144,6.307312
			c-0.2156677,9.8507385-0.1813049,19.7085571-0.1287231,29.5632935
			c0.1487579,27.8777466,0.3985748,55.7550354,0.5016022,83.6329041c0.0305939,8.2797546,3.9202118,14.7660217,8.8954773,20.8685303
			c5.4191284,6.6470032,11.5064087,12.4676208,19.2473755,16.430481c3.5846558,1.8350525,7.2057648,3.106781,11.279007,3.1582336
			c14.7334137,0.1860962,29.4660187,0.4398804,44.1982727,0.7048645c3.111084,0.0559387,6.2189331,0.2780151,9.3290405,0.4042358
			c3.050415,0.1238403,4.9884338-0.9595947,5.9313354-3.2806702c0.9259033-2.2792664,0.2562866-4.6251526-1.7675781-6.5786133
			c-12.6614075-12.2211914-25.3097229-24.4558716-37.9575348-36.6911316
			C244.667984,460.0845337,244.1823425,459.5186462,243.5188751,458.8097534z"/>
	</g>
</g>
</svg>
